<svg width="425" height="450" viewBox="0 0 425 450" fill="none" xmlns="http://www.w3.org/2000/svg">
<g clip-path="url(#clip0_3129_13987)">
<rect width="425" height="450" fill="white"/>
<path d="M99.2135 319.827C99.7638 313.905 100.311 308.001 100.858 302.121C98.6841 301.2 98.6423 300.474 100.183 298.698C103.135 295.293 105.964 291.781 108.844 288.313C108.97 288.161 109.071 287.99 109.203 287.847C111.353 285.467 112.083 285.626 113.815 288.268C115.556 290.923 117.55 293.407 119.456 295.954C120.108 296.827 120.798 297.673 121.501 298.501C122.65 299.852 122.381 300.967 120.769 301.604C120.461 301.726 120.051 302.025 120.006 302.297C119.811 303.46 119.737 304.644 119.602 305.983C126.149 307.116 132.63 308.24 139.422 309.418V286.989C139.321 286.989 139.031 286.947 138.762 286.995C137.601 287.207 136.536 286.872 136.156 285.805C135.762 284.696 136.339 283.706 137.356 283.01C139.034 281.862 140.685 280.675 142.339 279.491C143.427 278.711 144.606 278.015 145.551 277.082C146.624 276.027 147.65 274.849 148.401 273.555C153.294 265.113 158.118 256.626 162.942 248.142C164.402 245.574 165.329 242.917 165.156 239.828C164.922 235.622 165.093 231.398 165.045 227.18C165.033 226.033 165.41 225.043 166.552 225.001C167.59 224.962 168.075 225.847 168.117 226.959C168.132 227.357 168.55 227.988 168.906 228.089C172.471 229.121 176.054 230.101 179.655 230.995C180.179 231.123 180.825 230.645 181.426 230.603C182.138 230.555 182.862 230.675 183.579 230.72C183.514 231.395 183.564 232.116 183.346 232.741C183.125 233.377 182.446 233.883 182.323 234.513C182.219 235.037 182.577 235.685 182.826 236.238C183.107 236.866 183.855 237.536 183.738 238.029C183.588 238.657 182.829 239.497 182.23 239.592C180.385 239.888 178.468 240.095 176.617 239.921C174.272 239.7 171.966 239.063 169.639 238.624C169.358 238.57 169.062 238.618 168.879 238.618C167.865 242.501 169.187 245.831 171.155 249.039C175.875 256.73 180.642 264.395 185.215 272.173C187.097 275.375 189.737 277.566 192.791 279.494C194.968 280.87 197.032 282.445 199.033 284.068C199.539 284.478 199.936 285.473 199.808 286.08C199.673 286.711 198.931 287.389 198.288 287.679C197.753 287.918 196.978 287.625 195.985 287.539C196.177 299.631 196.368 311.597 196.56 323.638C202.239 323.851 207.614 324.051 212.773 324.245C211.595 321.429 210.144 318.712 209.328 315.815C208.451 312.7 209.16 309.702 211.666 307.43C210.123 303.23 209.692 299.329 214.041 296.531C212.707 293.736 211.906 291 212.734 287.984C213.111 286.612 213.817 285.539 215.034 284.842C215.764 284.424 215.943 283.996 215.629 283.162C214.307 279.656 215.294 276.547 217.439 273.683C219.419 271.037 222.909 271.247 224.605 274.09C225.981 276.394 226.187 278.938 226.253 281.533C226.265 282.047 226.42 282.72 226.764 283.04C229.034 285.132 229.414 287.775 228.888 290.567C228.627 291.942 228.61 292.932 229.531 294.169C231.439 296.728 231.011 299.711 230.356 302.62C230.132 303.61 229.818 304.581 229.426 305.995C230.951 305.352 232.127 304.937 233.227 304.378C237.609 302.157 241.931 299.807 246.366 297.7C247.58 297.123 249.115 297.12 250.512 297.036C252.24 296.928 253.981 297.009 255.734 297.009C256.436 294.627 257.322 293.894 259.335 294.083C261.129 294.25 261.482 294.743 261.742 297.607C274.498 297.918 287.272 298.232 299.971 298.54C299.49 296.615 298.808 294.701 298.586 292.734C298.422 291.264 298.658 289.67 299.068 288.232C299.549 286.543 300.844 285.536 302.72 285.572C301.443 277.961 305.746 275.776 309.027 276.986C310.529 275.788 311.704 274.487 313.167 273.758C316.188 272.248 318.628 273.432 319.597 276.672C319.962 277.892 320.106 279.181 320.375 280.556C320.94 280.753 321.688 280.962 322.391 281.276C324.888 282.388 325.498 284.606 325.579 287.031C325.666 289.718 324.993 292.235 323.416 294.495C327.313 298.351 326.793 302.665 324.879 307.131C324.783 307.358 324.726 307.606 324.607 307.819C323.698 309.412 323.419 310.781 324.227 312.775C326.063 317.307 323.898 321.038 320.737 324.251C319.753 325.253 318.637 326.129 317.399 327.223H327.104C326.739 326.048 326.347 324.903 326.027 323.737C325.39 321.429 325.869 319.292 327.319 317.438C327.876 316.727 327.831 316.174 327.568 315.424C326.572 312.566 326.18 309.654 327.074 306.692C327.257 306.088 327.454 305.346 327.903 304.991C329.371 303.819 329.042 302.465 328.692 300.949C327.971 297.819 329.335 295.018 331.857 293.748C332.078 292.098 332.15 290.579 332.512 289.132C333.014 287.117 334.599 286.128 336.528 285.847C338.245 285.599 339.376 286.866 340.129 288.092C341.113 289.691 341.702 291.533 342.498 293.362H353.077C353.077 292.504 353.071 291.87 353.077 291.237C353.092 289.697 353.69 289.078 355.23 289.051C356.462 289.03 357.692 289.048 359.088 289.048C358.607 284.947 360.655 282.86 364.161 281.736C364.161 279.967 364.14 278.179 364.173 276.394C364.182 275.862 364.194 275.205 364.493 274.837C364.801 274.457 365.531 274.093 365.94 274.209C366.419 274.344 367.062 274.983 367.092 275.441C367.217 277.417 367.146 279.405 367.146 281.575C371.402 282.113 373.507 284.555 372.981 289.213C374.362 289.213 375.529 289.186 376.692 289.219C378.947 289.279 379.369 289.724 379.39 291.966C379.393 292.358 379.39 292.749 379.39 293.284C383.652 293.521 387.827 293.751 392.185 293.99C392.185 292.166 392.119 290.45 392.206 288.744C392.278 287.288 392.927 286.821 394.326 286.932C395.663 287.037 395.738 287.868 395.598 288.932C395.508 289.616 395.58 290.322 395.58 291.219C396.587 291.305 397.637 291.398 398.843 291.503C398.843 290.453 398.819 289.572 398.849 288.693C398.902 287.031 399.483 286.415 401.11 286.409C406.089 286.388 411.069 286.394 416.049 286.415C416.686 286.415 417.323 286.558 417.96 286.645C419.444 286.845 420.054 287.524 420.066 289.001C420.075 290.286 420.066 291.571 420.066 293.054C422.428 293.165 424.797 293.272 427.163 293.395C427.656 293.422 428.281 293.338 428.61 293.601C429.155 294.038 429.759 294.662 429.882 295.296C430.058 296.223 429.331 296.761 428.401 296.734C425.123 296.647 421.842 296.588 418.573 296.363C417.505 296.289 416.641 295.67 416.785 294.268C416.937 292.797 416.934 291.311 417.006 289.712C414.533 289.575 412.122 289.44 409.559 289.297C409.559 291.114 409.553 292.737 409.559 294.361C409.565 295.789 408.991 296.6 407.926 296.522C406.649 296.426 406.532 295.559 406.577 294.495C406.646 292.866 406.595 291.231 406.595 289.47H401.738C401.738 290.507 401.744 291.533 401.738 292.558C401.729 293.852 401.062 294.438 399.776 294.438C398.681 294.438 397.586 294.471 396.498 294.561C395.75 294.624 395.316 294.952 395.236 295.864C394.907 299.574 394.865 299.619 398.582 299.652C407.869 299.735 417.156 299.756 426.445 299.861C427.154 299.87 428.12 300.136 428.482 300.635C428.775 301.039 428.53 302.1 428.168 302.626C427.89 303.03 427.058 303.224 426.475 303.218C417.945 303.143 409.415 303.018 400.882 302.913C399.294 302.895 397.703 302.994 396.121 302.898C394.99 302.829 394.637 303.242 394.623 304.318C394.536 311.011 394.41 317.704 394.302 324.398C394.285 325.54 394.255 326.688 394.338 327.826C394.362 328.14 394.76 328.675 395.002 328.687C396.806 328.762 398.615 328.726 400.541 328.726C400.541 327.259 400.568 325.928 400.532 324.598C400.503 323.513 400.808 322.745 402.028 322.631C404.089 322.443 404.989 322.843 405.141 324.206C405.306 325.674 405.3 327.163 405.378 328.819H410.836C410.836 327.453 410.848 326.075 410.833 324.697C410.815 323.13 411.434 322.61 413.351 322.61C415.176 322.61 415.538 322.933 415.549 324.559C415.555 325.306 415.564 326.051 415.567 326.798C415.57 327.489 415.567 328.182 415.567 329.067H421.773C421.773 327.782 421.752 326.362 421.779 324.945C421.8 323.815 421.824 322.748 423.481 322.765C425.997 322.792 426.535 323.046 426.547 324.882C426.562 326.9 426.442 328.918 426.391 330.932C426.364 331.988 425.844 332.445 424.788 332.418C423.353 332.382 421.917 332.409 420.287 332.409C420.287 334.439 420.32 336.403 420.278 338.367C420.245 339.93 419.764 340.241 417.745 340.146C416.495 340.086 415.902 339.587 416.019 338.176C416.16 336.502 416.058 334.801 415.953 333.118C415.932 332.774 415.454 332.179 415.176 332.173C412.062 332.104 408.943 332.131 405.668 332.131C405.668 334.182 405.683 336.158 405.665 338.134C405.647 339.918 405.282 340.268 403.577 340.229C401.166 340.176 401.178 340.176 401.19 338.206C401.205 336.17 401.193 334.137 401.193 331.829H389.819C389.819 334.131 389.741 336.37 389.846 338.6C389.918 340.134 389.2 340.477 387.872 340.448C385.82 340.4 385.482 340.173 385.479 338.531C385.479 336.26 385.479 333.988 385.479 331.548H374.234C374.234 333.18 374.234 334.893 374.234 336.606C374.234 337.004 374.258 337.401 374.24 337.799C374.147 340.005 372.801 340.941 370.809 340.005C370.313 339.772 369.909 338.827 369.882 338.194C369.81 336.37 369.963 334.541 370.005 332.711C370.014 332.328 369.918 331.943 369.852 331.405C366.47 331.249 363.162 331.073 359.851 330.986C359.591 330.98 359.097 331.578 359.082 331.91C359.004 333.647 359.046 335.39 359.043 337.132C359.037 339.177 358.646 339.578 356.74 339.512C354.964 339.452 354.635 339.004 354.689 337.061C354.746 335.049 354.701 333.031 354.701 330.816H344.352C344.352 332.81 344.385 334.884 344.343 336.956C344.304 338.989 342.549 340.083 340.781 339.129C340.443 338.947 340.258 338.224 340.246 337.742C340.192 335.416 340.222 333.088 340.222 330.583H330.322C330.322 332.421 330.292 334.239 330.328 336.056C330.376 338.525 329.461 339.33 327.056 338.672C326.658 338.561 326.219 337.751 326.198 337.249C326.105 334.98 326.159 332.702 326.159 330.182C324.499 330.182 322.968 330.212 321.439 330.173C319.968 330.134 318.499 330.024 316.642 329.925C316.642 332.269 316.66 334.436 316.636 336.603C316.621 338.206 316.394 338.322 314.45 338.367C313.2 338.397 312.473 338.143 312.545 336.648C312.646 334.481 312.572 332.305 312.572 329.904H302.558C302.558 331.719 302.573 333.683 302.555 335.65C302.537 337.533 301.987 338.044 300.151 337.993C298.996 337.96 298.305 337.635 298.38 336.236C298.494 334.11 298.41 331.973 298.41 329.563H288.543C288.543 331.447 288.525 333.509 288.549 335.569C288.561 336.675 288.468 337.515 286.97 337.449C284.655 337.348 284.407 337.261 284.386 335.566C284.362 333.488 284.38 331.411 284.38 329.091H274.579C274.579 330.956 274.561 333.055 274.585 335.15C274.6 336.675 274.262 336.986 272.464 336.968C270.769 336.95 270.248 336.511 270.314 335.082C270.407 333.052 270.532 331.025 270.655 328.807H261.614C261.614 330.735 261.59 332.618 261.623 334.502C261.643 335.82 261.096 336.382 259.735 336.328C257.66 336.251 257.477 336.188 257.447 334.505C257.414 332.574 257.441 330.639 257.441 328.559H248.801C248.801 330.397 248.774 332.224 248.81 334.05C248.834 335.216 248.541 335.964 247.165 335.958C244.94 335.946 244.59 335.742 244.581 334.089C244.572 332.206 244.581 330.326 244.581 328.09C242.849 328.09 241.034 328.09 239.215 328.09C237.403 328.088 236.495 329.004 236.493 330.84C236.493 331.886 236.517 332.929 236.496 333.976C236.464 335.494 236.143 335.677 234.059 335.689C232.854 335.697 232.196 335.351 232.249 333.982C232.33 332.006 232.27 330.024 232.27 327.818H223.507C223.507 329.713 223.531 331.677 223.501 333.641C223.477 335.225 223.056 335.455 220.651 335.267C219.484 335.174 219.248 334.478 219.293 333.411C219.374 331.482 219.317 329.548 219.317 327.348H210.491C210.491 329.282 210.509 331.306 210.485 333.327C210.464 335.079 210.273 335.135 207.778 335.115C206.403 335.103 206.31 334.394 206.355 333.288C206.438 331.261 206.379 329.229 206.379 327.019C203.433 326.864 200.573 326.682 197.714 326.622C197.484 326.616 197.02 327.465 197.032 327.907C197.119 331.031 197.268 334.155 197.466 337.276C197.947 344.953 198.444 352.629 198.976 360.306C199.293 364.859 199.688 369.409 200.062 374.156C202.467 374.308 204.919 374.482 207.375 374.619C213.862 374.987 220.349 375.31 226.833 375.713C232.034 376.039 237.226 376.511 242.427 376.828C250.159 377.298 257.896 377.647 265.627 378.12C272.303 378.529 278.972 379.058 285.648 379.498C289.949 379.782 294.256 379.955 298.554 380.257C302.708 380.547 306.853 380.963 311.004 381.27C314.563 381.533 318.132 381.707 321.691 381.946C329.969 382.502 338.245 383.103 346.524 383.626C354.892 384.155 363.266 384.618 371.638 385.109C379.914 385.593 388.192 386.071 396.468 386.562C403.99 387.01 411.509 387.482 419.034 387.922C420.472 388.005 421.92 387.952 423.362 388.011C424.352 388.053 425.497 388.011 425.38 389.521C425.273 390.896 424.268 391.18 423.143 391.126C418.582 390.899 414.021 390.648 409.46 390.382C400.096 389.838 390.734 389.288 381.37 388.726C373.588 388.26 365.806 387.784 358.024 387.297C348.226 386.684 338.427 386.074 328.632 385.429C318.888 384.786 309.15 384.098 299.406 383.438C290.293 382.819 281.18 382.197 272.067 381.596C267.266 381.279 262.46 381.034 257.657 380.711C249.459 380.161 241.264 379.531 233.06 379.019C228.002 378.706 222.936 378.571 217.875 378.32C212.366 378.048 206.86 377.728 201.354 377.438C200.869 377.411 200.382 377.435 199.841 377.435C199.634 381.166 197.334 383.527 194.699 385.515C190.65 388.57 187.467 392.418 183.962 396.444C206.175 398.417 228.065 400.952 249.758 406.351C248.678 402.085 246.504 399.242 242.604 397.861C235.925 395.497 228.962 394.498 221.988 393.575C217.226 392.947 212.462 392.358 207.695 391.775C206.645 391.647 206.196 391.099 206.301 390.074C206.414 388.962 207.165 388.699 208.113 388.804C211.762 389.213 215.426 389.536 219.057 390.092C225.52 391.082 231.992 392.056 238.399 393.341C242.637 394.19 246.611 395.733 249.776 399.063C250.67 400.005 252.722 399.873 254.259 400.163C255.028 400.31 255.826 400.298 256.801 400.372C256.906 399.21 257.035 398.005 257.112 396.794C257.172 395.9 257.112 394.998 257.205 394.11C257.411 392.071 257.965 391.602 260.007 391.841C263.112 392.203 266.207 392.639 269.312 393.028C270.568 393.186 270.939 393.972 270.933 395.108C270.918 397.634 270.93 400.163 270.93 402.979C277.13 403.637 283.378 404.298 289.237 404.919C290.341 402.489 291.02 400.363 292.201 398.567C293.4 396.743 295.593 396.549 297.136 397.891C297.949 398.6 298.488 399.64 299.092 400.57C299.292 400.881 299.313 401.305 299.379 401.547H304.278C305.196 398.038 307.251 395.859 311.154 396.316C313.388 396.579 314.357 398.247 314.952 400.381C317.806 398.504 320.536 398.408 322.965 400.976C326.473 398.086 329.604 398.313 331.815 401.353C334.169 401.353 336.406 401.105 338.562 401.419C340.904 401.76 342.66 403.147 343.042 405.864C345.387 405.407 347.708 405.158 349.697 406.803C351.575 408.354 352.317 410.468 352.404 412.515C354.446 412.802 356.385 412.844 358.17 413.385C359.991 413.938 361.475 415.167 361.912 417.388C362.537 417.083 363.051 416.823 363.575 416.572C367.161 414.868 370.956 415.224 374.703 415.591C380.18 416.126 385.638 416.847 391.102 417.496C397.308 418.234 403.511 418.975 409.717 419.723C415.134 420.374 420.556 421.005 425.964 421.728C426.924 421.857 428.347 421.609 428.425 423.247C428.491 424.571 427.77 425.169 426.308 424.987C421.238 424.362 416.172 423.696 411.102 423.068C406.374 422.482 401.642 421.929 396.91 421.361C391.353 420.697 385.799 420.001 380.24 419.382C376.692 418.987 373.139 418.554 369.577 418.416C366.389 418.294 363.592 419.325 361.948 422.374C361.511 423.184 360.751 423.438 360.087 422.921C359.609 422.551 359.079 421.669 359.208 421.187C359.752 419.164 359.387 417.603 357.566 416.44C355.951 415.409 353.424 415.427 351.77 416.539C351.483 416.733 351.225 417.092 350.929 417.122C350.205 417.2 349.335 417.37 348.758 417.062C347.882 416.596 348.584 415.83 348.728 415.122C349.021 413.687 349.278 412.172 349.12 410.74C348.928 409.018 345.196 408.064 343.533 409.182C343.204 409.403 342.941 409.807 342.591 409.897C341.954 410.058 341.191 410.246 340.635 410.031C340.267 409.888 339.983 409.054 339.989 408.53C340.001 406.994 340.668 405.329 338.523 404.546C336.292 403.733 334.273 403.858 332.383 405.413C331.94 405.777 331.226 406.145 330.747 406.034C330.25 405.918 329.622 405.281 329.515 404.773C329.261 403.571 329.165 402.322 327.699 402.041C326.312 401.771 325.516 402.71 324.816 403.735C324.29 404.501 323.853 405.41 323.144 405.951C322.053 406.785 321.054 406.211 320.686 404.734C319.971 401.843 318.407 401.416 316.038 403.365C315.299 403.972 314.258 404.797 313.505 404.665C312.153 404.429 312.676 402.893 312.383 401.9C312.168 401.168 311.803 400.435 311.339 399.828C310.675 398.959 309.838 399.015 309.018 399.721C307.55 400.985 307.074 402.629 306.994 404.504C306.967 405.152 306.533 405.786 306.285 406.426C305.603 406.139 304.667 406.043 304.284 405.532C302.89 403.676 300.961 404.232 299.902 405.918C299.693 406.25 299.615 406.701 299.343 406.952C298.882 407.38 298.317 407.693 297.794 408.055C297.504 407.514 297.076 407.003 296.944 406.426C296.562 404.752 296.346 403.039 295.948 401.368C295.862 401.006 295.287 400.516 294.95 400.525C294.585 400.534 293.998 401.003 293.912 401.368C293.451 403.272 293.14 405.215 292.724 407.134C292.59 407.756 292.446 408.641 292.021 408.862C291.63 409.069 290.753 408.686 290.272 408.321C288.121 406.698 285.786 406.862 284.102 408.988C283.103 410.246 282.289 411.651 281.171 413.322C283.516 413.863 285.409 414.381 287.335 414.727C296.442 416.369 305.552 417.98 314.668 419.564C319.992 420.488 325.328 421.343 330.657 422.222C331.925 422.431 333.202 422.592 334.471 422.811C335.487 422.987 335.87 422.569 335.721 421.591C335.431 419.702 334.898 418.028 332.748 417.391C332.35 417.274 331.872 416.485 331.922 416.067C331.973 415.651 332.598 415.071 333.056 414.982C334.527 414.695 335.804 415.203 336.717 416.428C337.097 416.937 337.384 417.513 337.796 418.198C338.338 417.585 338.733 416.919 339.313 416.53C340.022 416.055 340.883 415.567 341.685 415.555C342.19 415.546 342.875 416.324 343.144 416.901C343.261 417.149 342.621 418.022 342.157 418.219C339.902 419.17 339.202 421.086 338.601 423.349C342.094 423.803 345.429 424.246 348.77 424.67C355.314 425.507 361.855 426.344 368.402 427.163C372.927 427.728 377.458 428.236 381.98 428.816C387.968 429.588 393.947 430.419 399.934 431.199C404.8 431.83 409.672 432.418 414.539 433.031C418.516 433.531 422.494 434.03 426.469 434.55C427.474 434.681 428.171 435.208 428.069 436.32C427.964 437.438 427.097 437.659 426.209 437.554C421.968 437.052 417.733 436.514 413.501 435.958C406.966 435.097 400.437 434.185 393.902 433.342C386.033 432.329 378.161 431.357 370.286 430.38C363.589 429.549 356.89 428.76 350.196 427.908C346.41 427.426 342.636 426.861 338.858 426.311C331.695 425.268 324.526 424.255 317.375 423.136C310.571 422.072 303.743 421.089 296.998 419.714C283.213 416.907 269.468 413.896 255.722 410.898C247.93 409.2 240.205 407.173 232.384 405.64C225.972 404.381 219.47 403.565 212.991 402.68C206.408 401.78 199.811 401.012 193.21 400.241C189.268 399.781 185.314 399.458 181.375 398.979C180.795 398.908 179.936 398.405 179.823 397.948C179.676 397.371 179.987 396.486 180.409 395.993C181.913 394.235 183.546 392.588 185.132 390.902C185.042 390.741 184.949 390.579 184.859 390.418C182.562 391.33 180.158 392.038 178.001 393.207C175.447 394.591 173.081 396.337 170.686 397.999C167.471 400.226 163.798 400.967 160.026 401.275C155.543 401.64 151.12 400.923 146.714 400.169C141.355 399.251 136.246 397.55 131.341 395.219C125.913 392.639 121.747 388.63 118.86 383.444C113.827 374.395 108.961 365.25 105.907 355.284C104.714 351.392 103.386 347.508 103.556 343.371C103.697 339.91 104.48 336.639 107.717 334.621C108.925 333.868 108.754 332.699 108.503 331.731C108.392 331.303 107.277 330.926 106.604 330.897C105.282 330.837 104.705 330.269 104.334 329.019C103.9 327.563 103.401 326.003 102.483 324.84C100.601 322.455 97.8018 322.26 95.1101 322.888C92.7443 323.441 91.0934 325.157 90.7584 327.632C90.579 328.956 90.9797 330.361 91.1592 331.725C91.2429 332.358 91.5899 333.001 91.5151 333.602C91.4433 334.206 91.1293 335.031 90.6717 335.261C90.253 335.47 89.4993 335.013 88.8951 334.849C88.8951 334.693 88.8951 334.538 88.8951 334.382C88.4166 334.72 87.9201 335.034 87.4625 335.396C86.5114 336.149 86.3439 336.971 86.963 338.116C88.5482 341.042 88.4794 340.944 91.6975 340.388C93.2259 340.122 94.2786 339.658 94.9426 338.203C95.2806 337.464 95.9864 336.884 96.5427 336.254C97.0093 335.724 97.9753 335.135 97.9006 334.717C97.6912 333.527 97.114 332.388 96.5577 331.291C96.459 331.097 95.7471 331.27 95.3523 331.157C94.8409 331.013 94.0633 330.855 93.9437 330.514C93.7971 330.092 94.0453 329.255 94.4072 328.983C96.3483 327.534 98.3821 327.468 99.2823 330.218C99.6652 331.387 99.9612 332.583 100.338 333.916C100.888 333.728 101.34 333.438 101.774 333.458C102.426 333.491 103.066 333.745 103.712 333.904C103.475 334.597 103.26 335.303 102.985 335.981C102.931 336.113 102.653 336.197 102.468 336.224C98.5974 336.807 96.8627 339.506 96.0014 342.923C95.3135 345.643 94.8499 348.42 94.2338 351.425C96.0672 351.425 97.5357 351.425 99.0012 351.425C99.7997 351.425 100.76 351.311 100.754 352.468C100.748 353.517 99.9582 353.855 98.9982 353.852C97.5656 353.846 96.133 353.852 94.6734 353.852V360.417C96.1688 360.417 97.4519 360.435 98.735 360.411C99.8356 360.39 100.47 360.928 100.446 361.995C100.422 363.047 99.5904 363.194 98.732 363.191C97.5985 363.188 96.4619 363.191 94.9396 363.191C95.6903 366.267 96.3662 369.175 97.1498 372.051C97.2426 372.386 97.9245 372.733 98.3582 372.772C99.2913 372.855 100.263 372.613 101.179 372.757C101.702 372.84 102.148 373.42 102.629 373.779C102.258 374.218 101.971 374.876 101.505 375.053C100.5 375.429 99.399 375.555 98.0112 375.854C99.6951 379.967 101.337 384.036 103.057 388.071C103.209 388.433 103.876 388.768 104.316 388.78C105.904 388.822 107.495 388.75 109.083 388.663C110.01 388.615 110.827 388.681 110.956 389.823C111.09 390.986 110.57 391.581 109.352 391.611C108.177 391.641 107.002 391.769 105.608 391.868C109.239 396.462 113.833 399.461 118.887 402.058C119.022 401.446 119.016 400.866 119.279 400.456C119.581 399.981 120.173 399.293 120.547 399.347C121.163 399.437 121.714 400.032 122.27 400.444C122.354 400.507 122.372 400.74 122.339 400.872C121.69 403.478 123.466 403.969 125.374 404.45C128.928 405.347 132.46 406.327 136.007 407.242C136.524 407.377 137.09 407.332 137.876 407.389C137.876 406.788 137.891 406.268 137.873 405.747C137.837 404.692 138.319 403.978 139.375 403.936C140.571 403.888 140.981 404.755 141.044 405.798C141.085 406.531 141.052 407.266 141.052 408.235C147.133 409.063 153.103 409.879 159.216 410.713C159.267 409.837 159.264 409.164 159.35 408.501C159.5 407.374 160.077 406.674 161.318 406.734C162.569 406.794 162.67 407.67 162.676 408.617C162.679 409.359 162.676 410.1 162.676 411.021C168.398 411.621 174.036 412.216 179.981 412.841C179.981 411.702 179.969 410.74 179.984 409.777C179.999 408.776 180.702 408.196 181.51 408.387C182.099 408.527 182.796 409.281 182.957 409.891C183.2 410.817 183.02 411.855 183.02 413.107C188.206 413.639 193.303 414.162 198.683 414.715C198.683 413.499 198.674 412.336 198.686 411.173C198.695 410.282 198.937 409.637 200.047 409.645C201.142 409.654 201.764 410.103 201.8 411.2C201.838 412.432 201.809 413.666 201.809 415.164C207.04 415.684 212.339 416.21 217.819 416.754C217.881 416.004 217.956 415.436 217.971 414.865C218.019 412.829 218.671 411.786 219.867 411.876C220.968 411.956 221.366 412.934 221.216 415.068C221.168 415.747 221.21 416.434 221.21 417.185C225.514 417.78 229.725 418.362 233.936 418.948C234.92 419.086 235.928 419.152 236.873 419.424C238.138 419.788 238.372 419.217 238.312 418.159C238.279 417.564 238.306 416.963 238.339 416.369C238.393 415.388 238.85 414.766 239.912 414.826C240.971 414.886 241.354 415.624 241.41 416.539C241.455 417.277 241.437 418.034 241.318 418.763C241.138 419.863 241.674 420.255 242.646 420.428C247.326 421.268 252.004 422.132 256.933 423.035C256.933 422.117 256.915 421.19 256.939 420.267C256.966 419.286 257.274 418.455 258.431 418.428C259.592 418.401 260.142 419.044 260.124 420.207C260.103 421.439 260.121 422.673 260.121 423.902C265.185 425.092 270.123 426.248 275.252 427.453C275.252 426.464 275.234 425.689 275.258 424.915C275.285 424.012 275.473 423.187 276.61 423.151C277.716 423.119 278.255 423.815 278.338 424.805C278.428 425.842 278.359 426.891 278.359 428.183C283.572 429.357 288.797 430.532 294.268 431.764C294.268 430.634 294.238 429.758 294.277 428.885C294.315 427.949 294.689 427.19 295.748 427.163C296.846 427.136 297.333 427.884 297.45 428.867C297.525 429.507 297.587 430.182 297.459 430.801C297.181 432.149 297.758 432.64 299.014 432.879C303.632 433.755 308.235 434.708 313.023 435.671C313.023 434.511 313.056 433.432 313.014 432.356C312.975 431.297 313.361 430.598 314.465 430.493C315.673 430.377 316.191 431.1 316.229 432.191C316.277 433.528 316.241 434.867 316.241 436.355C322.008 437.375 327.678 438.379 333.591 439.423C333.514 438.164 333.427 437.151 333.394 436.137C333.358 435.055 334.037 434.266 334.976 434.4C335.562 434.484 336.083 435.432 336.507 436.074C336.696 436.361 336.588 436.849 336.591 437.246C336.6 438.086 336.591 438.926 336.591 439.964C342.166 440.884 347.657 441.793 353.367 442.735C353.367 441.428 353.379 440.397 353.364 439.369C353.349 438.278 353.899 437.617 354.949 437.611C356.085 437.605 356.364 438.505 356.459 439.452C356.468 439.548 356.432 439.65 356.432 439.748C356.477 443.904 356.029 443.064 359.686 443.688C364.083 444.442 368.503 445.066 372.918 445.739C373.408 445.814 373.902 445.85 374.389 445.904C374.389 444.797 374.422 443.736 374.38 442.678C374.336 441.518 374.775 440.636 375.96 440.576C377.207 440.514 377.628 441.381 377.584 442.564C377.536 443.799 377.572 445.04 377.572 446.436C383.616 447.404 389.565 448.355 395.828 449.359C395.729 447.972 395.663 446.818 395.562 445.667C395.466 444.6 395.861 443.904 396.976 443.799C397.945 443.706 398.448 444.182 398.511 445.174C398.582 446.358 398.666 447.548 398.858 448.717C398.92 449.099 399.285 449.685 399.59 449.739C404.705 450.642 409.834 451.476 414.975 452.328C414.975 451.033 414.939 450.014 414.984 448.998C415.035 447.921 415.391 447.039 416.68 446.971C418.035 446.899 418.122 447.882 418.241 448.842C418.271 449.087 418.319 449.329 418.346 449.571C418.466 450.681 418.193 452.178 418.807 452.794C419.461 453.449 420.951 453.272 422.078 453.449C423.104 453.607 424.133 453.76 425.165 453.894C426.317 454.047 426.873 454.821 426.774 455.84C426.666 456.958 425.721 456.979 424.815 456.836C416.83 455.586 408.844 454.325 400.855 453.093C393.414 451.945 385.964 450.857 378.526 449.697C371.865 448.657 365.216 447.554 358.562 446.483C350.537 445.192 342.489 444.023 334.492 442.582C322.447 440.412 310.409 438.185 298.422 435.731C288.869 433.773 279.397 431.438 269.886 429.274C268.863 429.041 268.059 428.93 266.973 429.74C255.772 438.104 245.965 447.939 236.541 458.181C233.183 461.831 229.994 465.633 226.731 469.37C226.079 470.117 225.478 471.074 224.294 470.366C223.468 469.875 223.471 468.497 224.38 467.439C226.833 464.578 229.247 461.666 231.873 458.967C238.378 452.274 244.898 445.593 251.6 439.1C255.231 435.581 259.248 432.46 263.088 429.16C263.459 428.84 263.827 428.514 264.404 428.009C261.35 427.259 258.518 426.47 255.65 425.878C251.241 424.966 246.824 424.063 242.376 423.373C234.259 422.111 226.13 420.924 217.983 419.863C210.374 418.874 202.742 418.049 195.112 417.227C189.358 416.608 183.585 416.144 177.825 415.546C171.658 414.91 165.494 414.243 159.339 413.505C152.588 412.698 145.835 411.896 139.111 410.904C131.685 409.807 124.423 407.971 117.571 404.854C114.566 403.484 111.772 401.646 108.686 399.909C105.623 403.2 102.342 406.572 99.2375 410.1C95.9565 413.825 92.846 417.702 89.6458 421.501C89.1045 422.144 88.5631 422.847 87.8752 423.292C87.3907 423.606 86.655 423.528 86.0329 423.624C86.0448 422.987 85.8026 422.165 86.1106 421.746C88.0278 419.152 89.9808 416.572 92.0893 414.133C96.761 408.725 101.531 403.401 106.43 397.846C106.14 397.479 105.704 396.836 105.177 396.271C101.481 392.313 99.2075 387.551 97.3502 382.547C94.9127 375.976 92.9866 369.253 91.9458 362.324C91.0066 356.073 90.6926 349.801 92.7144 343.646C92.7563 343.515 92.7204 343.356 92.7204 343.171C90.0376 342.779 88.0397 344.175 86.1435 345.7C75.8131 354.007 67.5524 364.117 60.518 375.28C55.1823 383.74 50.9622 392.756 47.427 402.085C43.7961 411.666 40.4135 421.34 36.7796 430.921C33.4149 439.796 29.9605 448.639 26.3415 457.413C24.9119 460.877 22.923 464.109 21.1883 467.445C21.1195 467.576 21.0418 467.708 20.9461 467.819C20.2671 468.632 19.6779 469.962 18.3739 469.215C16.9443 468.393 18.015 467.224 18.4965 466.384C23.6019 457.478 27.1461 447.897 30.7142 438.331C34.5843 427.952 38.2989 417.516 42.202 407.149C44.487 401.078 46.6524 394.923 49.5146 389.12C52.7059 382.652 56.3786 376.386 60.2817 370.314C65.5844 362.07 71.8383 354.536 79.0223 347.828C80.8318 346.139 82.8536 344.678 84.7737 343.111C85.1506 342.803 85.5154 342.483 85.8564 342.193C84.4029 338.786 84.4178 338.818 81.1548 340.331C77.1441 342.19 73.6747 344.839 70.3937 347.727C64.6573 352.776 58.9747 357.891 53.3369 363.05C49.0151 367.008 44.9057 371.202 40.5002 375.064C34.8266 380.036 28.9346 384.762 23.1862 389.65C22.6688 390.089 22.2022 390.929 22.2052 391.581C22.2441 399.072 20.973 406.348 18.8136 413.496C18.3739 414.949 17.9941 416.419 17.8924 418.034C19.1994 416.156 20.5483 414.306 21.8044 412.396C28.9226 401.553 36.4715 391.058 45.8568 382.012C46.7421 381.16 47.6543 380.32 48.6473 379.602C48.9972 379.351 49.7808 379.277 50.0799 379.501C50.358 379.71 50.4956 380.598 50.2863 380.888C49.2813 382.263 48.2315 383.632 47.0232 384.831C40.3387 391.467 34.5724 398.842 29.1918 406.546C24.0565 413.902 18.7657 421.152 13.7351 428.58C11.2647 432.227 9.25782 436.185 6.99076 439.97C4.06571 444.851 0.46772 449.207 -3.54301 453.236C-4.33259 454.032 -5.20592 454.561 -6.09121 453.64C-6.91967 452.779 -6.30954 451.837 -5.66352 451.135C-1.14136 446.229 2.84544 440.923 6.28492 435.214C10.5558 428.123 13.4091 420.434 16.0052 412.605C18.1466 406.142 18.9482 399.526 19.2054 392.507C17.6172 393.593 16.2175 394.57 14.7969 395.518C13.0263 396.699 11.2138 397.823 9.47316 399.048C9.09332 399.317 8.80919 399.885 8.7075 400.364C7.4334 406.306 5.75853 412.136 2.48953 417.304C0.674089 420.177 -1.63784 422.736 -3.74937 425.42C-3.95574 425.683 -4.29072 425.973 -4.5898 426.006C-5.25377 426.078 -6.16 426.251 -6.55778 425.911C-7.2696 425.298 -7.0094 424.521 -6.37235 423.713C-3.85704 420.527 -1.18921 417.415 0.916348 413.965C3.12359 410.345 4.35881 406.238 5.17232 401.864C2.99499 403.141 1.00009 404.324 -1.01574 405.481C-1.48231 405.75 -2.0416 406.154 -2.49023 406.079C-3.08242 405.978 -4.02453 405.511 -4.0664 405.123C-4.12921 404.501 -3.76134 403.526 -3.25588 403.203C0.554455 400.776 4.48443 398.537 8.29178 396.107C11.803 393.865 15.2126 391.464 18.6431 389.1C18.9123 388.914 19.1725 388.478 19.1665 388.164C19.0798 383.515 18.9452 378.867 18.8166 373.949C15.084 375.097 11.495 376.185 7.91493 377.307C6.3567 377.794 4.84034 378.442 3.25519 378.801C2.69291 378.927 1.6521 378.574 1.41881 378.132C1.00308 377.345 1.35899 376.517 2.37588 376.162C6.10846 374.855 9.83206 373.522 13.6484 372.168C11.4322 371.25 9.22492 370.252 6.94889 369.45C6.40754 369.259 5.60001 369.624 4.97792 369.887C3.8414 370.371 2.79161 371.08 1.62817 371.471C1.04794 371.669 0.303224 371.373 -0.366726 371.301C-0.220175 370.577 -0.315881 369.594 0.123773 369.187C0.934293 368.44 2.00502 367.881 3.06378 367.507C6.56008 366.279 9.28474 363.86 12.2337 361.786C14.3393 360.303 16.4448 358.817 18.5265 357.299C21.4784 355.14 24.6487 354.282 28.0164 355.622C28.8479 354.013 29.4161 352.393 30.4091 351.096C32.9005 347.84 39.3248 347.882 41.864 351.673C42.8719 353.176 42.9407 353.129 44.7771 352.853C44.9297 351.723 45.0433 350.597 45.2407 349.484C45.5966 347.514 46.9993 346.483 48.7071 345.733C49.0211 345.595 49.5116 345.371 49.5415 345.141C49.9423 341.885 52.2542 340.325 54.8832 339.072C56.1274 338.478 57.1832 338.029 56.9648 336.212C56.7884 334.747 58.0894 334.116 59.4143 333.913C65.4349 332.995 71.4555 332.05 77.491 331.231C79.438 330.968 81.43 330.986 83.4009 331.004C84.5763 331.016 85.8325 331.112 86.3619 332.55C87.5313 332.212 88.3926 331.97 88.0427 330.37C87.5492 328.11 87.9171 325.889 89.1224 323.827C90.8631 320.846 93.7463 320.15 96.8388 319.854C97.5686 319.782 98.3133 319.845 99.2135 319.845V319.827ZM141.061 339.111C140.96 340.403 140.906 341.434 140.792 342.456C140.125 348.414 139.518 354.381 138.741 360.327C137.954 366.368 136.97 372.383 136.127 378.416C135.893 380.078 135.22 381.785 136.608 383.366C138.214 385.192 140.32 386.116 142.491 386.965C146.589 388.564 150.859 389.336 155.235 389.449C160.529 389.587 165.823 389.608 171.116 389.665C172.089 389.674 172.57 389.318 172.579 388.173C172.606 385.157 172.797 382.143 172.929 379.127C173.031 376.786 174.14 375.71 176.479 375.689C177.224 375.683 177.972 375.695 178.716 375.698C180.843 375.713 181.57 376.487 181.552 378.565C181.522 381.841 181.543 385.115 181.543 388.532C185.799 386.995 190.219 385.892 193.623 382.696C195.944 380.514 197.385 378.066 197.029 374.565C196.326 367.711 195.988 360.82 195.519 353.945C195.199 349.251 194.912 344.555 194.607 339.832C176.748 342.833 159.004 342.947 141.055 339.114L141.061 339.111ZM141.752 336.104C153.147 339.569 185.185 339.844 194.269 336.475C193.979 329.686 193.688 322.87 193.395 316.01C192.453 316.093 191.676 316.171 190.898 316.231C189.872 316.311 189.053 316.01 189.047 314.838C189.044 313.729 189.848 313.322 190.835 313.268C191.604 313.226 192.375 313.259 193.473 313.259C193.473 304.432 193.479 295.894 193.449 287.359C193.449 287.052 193.171 286.54 192.923 286.472C191.433 286.053 189.917 285.733 188.365 285.372C188.317 285.88 188.275 286.125 188.272 286.37C188.272 288.896 188.344 291.425 188.233 293.948C188.2 294.683 187.829 295.795 187.288 296.053C184.985 297.144 183.337 295.894 183.382 293.365C183.433 290.456 183.394 287.548 183.394 284.424C180.125 284.242 176.82 284.053 173.443 283.865C173.366 284.807 173.27 285.536 173.255 286.265C173.198 289.093 173.207 291.924 173.084 294.749C173.064 295.227 172.624 295.963 172.217 296.103C168.87 297.242 167.393 296.133 167.48 292.669C167.486 292.42 167.513 292.172 167.513 291.924C167.513 289.362 167.513 286.8 167.513 284.313C163.645 284.313 159.928 284.283 156.216 284.361C155.872 284.367 155.262 285.034 155.247 285.41C155.154 288.19 155.154 290.974 155.175 293.754C155.193 295.873 154.616 296.51 152.489 296.543C149.858 296.585 149.771 296.501 149.774 293.948C149.774 290.944 149.774 287.939 149.774 284.869C148.362 285.067 147.088 285.252 145.814 285.422C142.629 285.853 142.638 285.925 142.638 289.165C142.638 294.97 142.614 300.782 142.473 306.584C142.3 313.765 141.971 320.942 141.758 328.122C141.681 330.762 141.746 333.405 141.746 336.104H141.752ZM173.174 392.654C171.55 392.771 170.261 392.989 168.981 392.938C162.587 392.678 156.171 392.606 149.813 391.96C144.627 391.434 139.557 390.011 135.292 386.738C133.291 385.201 132.215 383.025 132.561 380.487C133.181 375.973 134.063 371.495 134.733 366.987C135.406 362.443 135.95 357.882 136.5 353.72C133.812 351.813 131.428 350.052 128.975 348.393C123.227 344.507 117.431 340.69 111.691 336.792C110.39 335.907 109.487 336.361 108.584 337.3C107.127 338.815 106.314 340.732 106.562 342.726C107.05 346.636 107.546 350.602 108.659 354.363C111.808 364.99 117.404 374.508 122.964 383.994C125.644 388.564 130.073 391.24 134.838 393.273C143.009 396.758 151.547 398.591 160.448 398.068C165.12 397.793 169.43 396.232 173.174 392.657V392.654ZM312.984 326.263C314.393 325.372 315.775 324.697 316.92 323.737C319.621 321.471 322.124 319.038 321.727 315.017C321.616 313.899 321.472 313.143 320.025 313.708C319.645 313.857 318.813 313.492 318.547 313.116C318.293 312.754 318.404 312.037 318.547 311.528C318.661 311.131 319.05 310.802 319.349 310.47C321.436 308.153 322.69 305.427 323.111 302.366C323.401 300.259 323.046 298.244 321.06 297.003C319.881 296.265 319.896 295.553 320.515 294.423C321.834 292.023 323.037 289.521 322.394 286.663C322.202 285.808 321.748 284.597 321.119 284.373C320.5 284.152 319.516 284.992 318.673 285.324C318.179 285.518 317.399 285.91 317.195 285.724C316.678 285.249 316.331 284.531 316.08 283.85C315.969 283.548 316.331 283.106 316.361 282.717C316.484 280.968 316.831 279.181 316.582 277.483C316.358 275.943 315.006 275.563 313.947 276.699C313.179 277.524 312.945 278.843 312.452 279.931C312.12 280.66 311.917 281.73 311.351 281.988C310.843 282.221 309.916 281.572 309.189 281.276C308.968 281.186 308.806 280.962 308.603 280.822C307.269 279.901 306.318 280.245 305.732 281.751C305.127 283.309 305.911 284.57 306.557 285.826C307.056 286.797 307.382 287.859 306.539 288.54C306.016 288.962 304.903 288.887 304.122 288.72C302.424 288.355 301.547 288.857 301.697 290.615C301.852 292.423 302.247 294.223 302.687 295.99C303.007 297.278 303.644 298.483 304.006 299.765C304.616 301.924 303.976 302.692 301.834 302.366C300.372 302.142 299.726 303.009 299.283 304.097C298.53 305.956 299.523 307.457 300.486 308.91C301.03 309.735 301.748 310.452 302.247 311.301C302.998 312.581 302.567 313.998 301.41 313.998C299.621 313.998 299.397 315.265 299.325 316.44C299.265 317.438 299.532 318.527 299.911 319.471C301.218 322.724 303.787 324.822 306.787 326.398C307.631 326.84 308.695 326.864 309.805 327.112C309.805 325.543 309.727 324.347 309.823 323.166C309.964 321.411 309.425 319.911 308.624 318.371C307.074 315.382 305.693 312.303 304.281 309.242C303.931 308.485 303.799 307.603 304.813 307.26C305.732 306.946 306.392 307.334 306.772 308.321C307.646 310.575 308.6 312.796 309.542 315.023C309.673 315.331 309.91 315.594 310.221 316.069C310.355 313.34 310.55 310.916 310.559 308.491C310.562 307.502 310.331 306.432 309.916 305.535C309.001 303.562 307.891 301.679 306.877 299.747C306.44 298.913 305.869 298.091 305.699 297.2C305.591 296.635 305.929 295.727 306.381 295.377C307.021 294.884 307.67 295.29 307.972 296.109C308.178 296.665 308.492 297.177 308.737 297.718C309.389 299.152 310.029 300.593 310.672 302.031C310.807 301.992 310.939 301.954 311.073 301.912C310.613 297.727 310.158 293.544 309.685 289.359C309.578 288.403 309.344 287.288 310.631 287.084C311.914 286.881 312.255 287.945 312.419 288.983C312.482 289.374 312.482 289.775 312.509 290.172C312.625 291.811 312.745 293.446 312.862 295.084C313.597 293.942 314.064 292.761 314.516 291.577C314.656 291.21 314.743 290.818 314.898 290.456C315.257 289.634 315.927 289.306 316.708 289.715C317.438 290.095 317.656 290.681 317.175 291.565C315.805 294.071 314.028 296.516 313.394 299.215C312.754 301.942 313.295 304.946 313.313 307.828C313.319 308.829 313.313 309.833 313.313 310.835C314.626 308.629 315.637 306.39 316.558 304.115C316.887 303.305 317.204 302.548 318.215 302.892C319.253 303.245 319.271 304.169 318.9 304.988C318.248 306.432 317.504 307.837 316.735 309.221C315.509 311.424 313.582 313.472 313.131 315.812C312.506 319.047 312.975 322.493 312.975 326.266L312.984 326.263ZM136.859 350.049C137.245 345.969 137.631 342.424 137.903 338.866C138.334 333.204 138.651 327.537 139.099 321.878C139.222 320.335 138.169 320.275 137.245 320.201C136.139 320.114 136.459 321.085 136.399 321.722C136.36 322.168 136.318 322.616 136.333 323.061C136.36 323.985 135.801 324.622 135.029 324.443C134.541 324.332 134.021 323.477 133.898 322.879C133.734 322.084 134 321.211 133.967 320.374C133.952 319.988 133.764 319.376 133.498 319.271C132.573 318.906 131.577 318.721 130.39 318.41C130.39 319.528 130.363 320.365 130.396 321.199C130.435 322.132 130.142 322.822 129.11 322.78C128.078 322.742 127.486 322.174 127.51 321.062C127.537 319.902 127.516 318.739 127.516 317.418C126.69 317.196 125.79 316.957 124.699 316.667C124.699 318.069 124.857 319.193 124.633 320.233C124.519 320.76 123.721 321.139 123.23 321.585C122.829 321.121 122.195 320.706 122.079 320.18C121.89 319.328 121.95 318.392 122.067 317.51C122.252 316.099 121.821 315.346 120.057 315.495C120.012 316.32 119.943 317.187 119.919 318.057C119.892 319.002 119.497 319.579 118.49 319.555C117.538 319.534 117.195 318.975 117.236 318.081C117.275 317.238 117.389 316.377 117.263 315.555C117.189 315.062 116.833 314.425 116.414 314.207C115.747 313.857 114.924 313.797 114.015 313.582C113.839 314.915 113.668 316.18 113.501 317.444C112.852 322.302 112.182 327.16 111.59 332.024C111.536 332.475 111.826 333.192 112.191 333.438C117.661 337.103 123.188 340.684 128.667 344.337C131.329 346.112 133.922 347.996 136.859 350.046V350.049ZM342.381 327.665C358.451 327.928 374.757 328.194 391.216 328.46V308.195H345.498C344.939 309.603 344.382 311.011 343.814 312.44C346.625 314.718 346.228 317.758 345.396 320.634C344.684 323.097 343.38 325.393 342.381 327.665ZM291.202 326.308C291.202 323.339 291.178 320.428 291.211 317.516C291.235 315.274 292.153 314.407 294.417 314.392C295.102 314.386 295.79 314.392 296.403 314.392C296.78 313.57 297.103 312.859 297.528 311.932C275.682 311.406 253.978 310.883 232.163 310.357V324.93H236.185C236.185 324.35 236.185 323.86 236.185 323.366C236.194 321.079 236.167 318.79 236.224 316.506C236.281 314.15 237.232 313.283 239.556 313.349C239.804 313.355 240.053 313.355 240.301 313.361C243.33 313.43 243.767 313.89 243.749 316.972C243.734 319.256 243.686 321.54 243.764 323.821C243.782 324.308 244.216 325.115 244.578 325.19C245.807 325.447 247.09 325.441 248.433 325.54C248.472 324.667 248.508 323.976 248.532 323.289C248.624 320.757 248.702 318.228 248.81 315.696C248.849 314.736 249.112 313.848 250.278 313.815C251.768 313.773 253.263 313.809 254.753 313.872C255.76 313.914 256.275 314.476 256.23 315.522C256.209 316.018 256.236 316.518 256.254 317.014C256.347 319.866 256.445 322.721 256.544 325.641H262.541C262.541 325.037 262.541 324.55 262.541 324.06C262.553 321.48 262.547 318.9 262.586 316.323C262.612 314.605 263.244 313.944 264.936 313.938C266.169 313.932 267.479 313.857 268.612 314.234C269.384 314.491 270.015 315.415 270.502 316.174C270.751 316.563 270.55 317.241 270.55 317.788C270.55 320.503 270.55 323.22 270.55 326.003H276.882C276.882 323.064 276.84 320.236 276.894 317.412C276.939 315.047 277.848 314.204 280.181 314.165C280.578 314.159 280.976 314.147 281.374 314.153C283.868 314.189 284.422 314.715 284.562 317.19C284.58 317.537 284.562 317.887 284.562 318.234C284.562 320.894 284.562 323.555 284.562 326.317H291.202V326.308ZM234.816 307.05C234.825 307.158 234.834 307.266 234.842 307.373C255.393 307.852 275.943 308.327 296.271 308.799V301.568C295.709 301.568 295.213 301.58 294.719 301.568C290.556 301.463 286.393 301.38 282.229 301.236C278.114 301.093 273.999 300.856 269.883 300.719C263.985 300.519 258.087 300.309 252.186 300.238C250.293 300.217 248.2 300.187 246.543 300.928C242.526 302.728 238.713 304.979 234.816 307.047V307.05ZM222.46 324.242C225.589 322.41 227.129 319.582 228.394 316.7C229.6 313.956 230.003 311.011 228.388 308.153C228.092 308.246 227.955 308.303 227.811 308.33C226.986 308.473 225.957 309.301 225.427 308.21C225.158 307.657 225.514 306.62 225.888 305.974C227.398 303.35 228.269 300.65 227.572 297.589C227.38 296.749 227.078 296.283 226.121 296.25C224.602 296.196 224.15 295.413 224.677 293.987C224.967 293.198 225.364 292.423 225.496 291.607C225.846 289.416 226.423 287.06 224.449 285.348C223.385 284.424 223.079 283.515 223.044 282.161C222.987 280.116 222.762 278.027 222.218 276.063C221.826 274.646 220.062 274.538 219.383 275.841C218.764 277.028 218.258 278.415 218.219 279.728C218.171 281.432 218.665 283.147 218.865 284.866C218.973 285.784 218.722 286.657 217.63 286.714C216.374 286.779 215.812 287.62 215.596 288.57C215.348 289.652 215.187 290.89 215.471 291.927C215.892 293.473 216.709 294.917 217.409 296.381C218.1 297.831 217.627 298.86 216.06 299.23C214.618 299.571 213.904 300.543 213.781 301.974C213.616 303.912 214.248 305.55 215.54 307.018C216.583 308.204 216.09 309.511 214.544 309.642C213.042 309.771 212.357 310.638 212.306 311.935C212.247 313.445 212.232 315.026 212.603 316.47C213.545 320.111 215.806 322.721 219.368 324.281C219.658 322.015 219.526 319.997 218.387 318.111C217.618 316.841 216.885 315.534 216.302 314.174C216.087 313.675 216.114 312.649 216.428 312.428C217.146 311.92 217.935 312.189 218.327 313.119C218.641 313.863 218.982 314.593 219.311 315.328C219.476 315.307 219.64 315.289 219.804 315.268C219.804 305.896 219.799 296.525 219.813 287.153C219.813 286.02 219.772 284.836 220.077 283.772C220.208 283.309 221.15 282.989 221.781 282.825C221.925 282.786 222.541 283.659 222.541 284.113C222.556 288.983 222.469 293.849 222.457 298.719C222.436 307.11 222.451 315.501 222.451 324.245L222.46 324.242ZM336.687 320.646C336.765 320.676 336.845 320.706 336.923 320.736C337.138 320.153 337.336 319.561 337.572 318.987C337.928 318.123 338.422 317.22 339.513 317.684C340.599 318.144 340.357 319.157 339.941 319.985C339.208 321.447 338.383 322.861 337.614 324.302C337.267 324.954 336.881 325.605 336.675 326.305C336.573 326.652 336.839 327.106 336.938 327.513C337.297 327.405 337.802 327.408 337.988 327.169C339.364 325.378 340.784 323.606 341.963 321.686C342.534 320.754 342.734 319.537 342.884 318.419C343.126 316.622 342.399 315.83 340.704 315.262C340.276 315.119 339.752 314.183 339.854 313.75C340.075 312.817 340.629 311.95 341.134 311.104C342.815 308.279 342.857 304.913 341.188 302.877C339.026 303.332 338.365 302.773 338.571 300.647C338.604 300.303 338.676 299.954 338.795 299.628C340.016 296.286 339.591 293.102 337.808 290.086C337.515 289.59 336.914 289.276 336.456 288.875C336.02 289.38 335.248 289.865 335.215 290.394C335.126 291.849 335.218 293.347 335.482 294.782C335.709 296.02 334.994 297.102 333.81 296.701C332.879 296.384 332.377 296.764 332.15 297.407C331.833 298.304 331.557 299.323 331.674 300.238C331.815 301.335 332.332 302.399 332.79 303.433C333.202 304.366 332.939 305.128 332.102 305.391C330.212 305.986 329.847 307.424 329.754 309.074C329.622 311.397 330.125 313.579 331.172 315.666C332.048 317.409 331.758 317.875 330.173 318.882C329.548 319.28 328.884 320.225 328.905 320.9C328.958 322.496 329.278 324.12 329.745 325.656C330.283 327.435 331.737 327.868 333.561 327.614C333.588 327.244 333.627 326.909 333.636 326.574C333.792 321.911 333.947 317.247 334.1 312.584C334.174 310.303 334.222 308.019 334.345 305.741C334.39 304.898 334.695 304.175 335.805 304.276C336.836 304.372 337.076 305.08 337.165 305.92C337.186 306.112 337.117 306.312 337.112 306.509C336.965 311.221 336.821 315.932 336.681 320.643L336.687 320.646ZM41.9956 369.576C42.0584 369.63 42.1212 369.684 42.1841 369.734C43.2548 368.685 44.2926 367.603 45.4022 366.596C48.746 363.567 48.8387 363.212 47.119 359.003C46.9515 358.59 46.7601 358.184 46.5716 357.78C45.7133 355.941 45.3304 355.702 43.3595 356.199C42.3186 356.459 41.7414 356.133 41.1163 355.32C40.3686 354.348 39.4833 353.451 38.5292 352.68C36.6749 351.179 33.8157 351.335 32.5864 353.308C31.6981 354.734 31.1239 356.62 31.1538 358.288C31.1897 360.312 32.0002 362.327 32.4967 364.339C32.8018 365.576 32.3382 366.3 31.1329 366.38C27.6186 366.623 25.4862 371.184 27.4721 374.21C28.5548 375.857 30.119 376.87 31.9374 377.501C32.2963 377.626 32.8735 377.614 33.1487 377.402C34.1925 376.601 35.1526 375.695 36.3698 374.628C34.8445 373.8 33.4717 373.154 32.2275 372.323C31.7939 372.033 31.6712 371.274 31.405 370.73C32.0062 370.509 32.6104 370.117 33.2085 370.126C33.6811 370.132 34.1417 370.643 34.6172 370.906C35.4367 371.355 36.2652 371.785 37.4675 372.428C36.1814 368.225 35.0449 364.539 33.9353 360.844C33.696 360.049 33.5943 359.071 34.698 359.006C35.1735 358.976 35.8554 359.693 36.1665 360.228C36.6121 361.002 36.8065 361.923 37.1086 362.781C37.5991 361.597 37.8742 360.5 38.0148 359.385C38.1255 358.503 38.3528 357.699 39.3727 357.816C40.5152 357.947 40.5211 358.919 40.3447 359.786C39.9828 361.582 39.5013 363.355 39.1753 365.158C39.0018 366.114 39.0467 367.113 38.9928 368.093C39.1304 368.105 39.265 368.12 39.4026 368.132C39.9858 366.778 40.584 365.433 41.1402 364.07C41.4034 363.424 41.532 362.59 42.5041 362.907C43.3894 363.197 43.9158 363.756 43.524 364.841C42.9587 366.401 42.4951 367.995 41.9896 369.576H41.9956ZM376.42 292.199H356.166C356.166 292.606 356.145 292.857 356.169 293.102C356.477 296.109 356.038 296.513 353.023 296.534C349.503 296.558 345.985 296.734 342.375 296.848C342.313 297.679 342.259 298.378 342.19 299.305H391.919C391.955 298.749 391.997 298.13 392.05 297.299C388.213 297.126 384.552 296.967 380.892 296.788C379.905 296.74 378.918 296.656 377.937 296.534C376.887 296.402 376.369 295.789 376.411 294.704C376.441 293.972 376.417 293.237 376.417 292.202L376.42 292.199ZM160.717 280.837H174.786C172.127 270.129 169.537 259.702 167.052 249.69C164.997 259.8 162.853 270.335 160.717 280.837ZM102.889 310.996C102.683 314.117 102.444 317.074 102.333 320.036C102.315 320.553 102.701 321.289 103.135 321.582C104.735 322.673 105.722 324.117 106.221 325.964C106.724 327.832 107.079 328.03 109.137 327.761C109.753 322.676 110.39 317.573 110.98 312.461C111.153 310.969 111.551 309.696 112.983 308.901C115.711 307.391 117.227 305.134 117 301.699H110.534C110.489 302.483 110.42 303.266 110.402 304.049C110.381 305.045 109.957 305.72 108.91 305.639C107.941 305.565 107.624 304.892 107.719 303.935C107.797 303.167 107.734 302.387 107.734 301.64C103.018 301.012 104.11 301.081 103.526 304.904C103.52 304.952 103.526 305.003 103.526 305.053C103.511 306.01 103.114 307.304 103.583 307.828C104.104 308.411 105.408 308.318 106.377 308.464C107.37 308.614 107.935 309.149 107.866 310.141C107.794 311.203 107.041 311.558 106.078 311.46C105.097 311.358 104.127 311.176 102.892 310.99L102.889 310.996ZM142.225 282.938C146.9 282.388 151.491 281.781 156.099 281.354C157.305 281.24 157.903 281.022 158.172 279.737C159.608 272.915 161.151 266.114 162.631 259.304C163.029 257.475 163.337 255.624 163.687 253.783C162.99 254.33 162.578 254.937 162.216 255.573C158.86 261.475 155.48 267.361 152.181 273.294C150.548 276.233 148.757 278.953 145.67 280.606C144.435 281.267 143.332 282.179 142.222 282.938H142.225ZM53.624 358.518C53.8304 358.482 53.9441 358.497 54.0009 358.45C56.6358 356.109 59.2797 353.78 61.8698 351.392C62.1689 351.117 62.2796 350.51 62.2825 350.058C62.3125 346.878 62.3364 343.694 62.2676 340.516C62.2377 339.147 62.8957 338.639 64.1249 338.549C65.5097 338.448 66.9034 338.391 68.2732 338.188C71.7516 337.67 75.221 337.102 78.6873 336.517C80.5656 336.2 82.4289 335.802 84.3191 335.437C83.9303 333.955 82.9882 334.116 82.0909 334.218C75.1013 334.995 68.1177 335.79 61.1251 336.538C60.3176 336.624 60.1351 336.962 60.1441 337.676C60.162 339.019 60.1381 340.361 60.1052 341.703C60.0364 344.48 59.9467 347.254 59.8749 350.032C59.848 351.102 59.3485 351.75 58.2539 351.732C57.1802 351.718 56.8332 351.045 56.8751 350.034C56.92 348.943 56.8751 347.846 56.8721 346.752C56.8721 345.15 56.8721 343.551 56.8721 341.76C56.1035 342.146 55.6279 342.403 55.1404 342.627C53.5044 343.371 52.7059 344.549 52.9601 346.414C53.1126 347.535 53.0767 348.68 53.1395 349.813C53.298 352.713 53.4625 355.613 53.624 358.527V358.518ZM193.781 283.524C193.494 283.261 193.279 283.004 193.007 282.828C191.098 281.59 189.118 280.448 187.282 279.112C186.143 278.284 184.997 277.309 184.231 276.152C181.961 272.726 179.874 269.178 177.726 265.672C175.564 262.138 173.413 258.596 171.155 254.892C171.108 255.248 171.048 255.394 171.078 255.514C173.243 263.693 175.399 271.872 177.634 280.032C177.747 280.445 178.495 280.878 179 280.959C181.348 281.324 183.729 281.47 186.068 281.874C188.622 282.313 191.143 282.95 193.775 283.524H193.781ZM251.92 402.904C252.207 403.819 252.426 404.411 252.578 405.021C253.024 406.8 254.136 407.58 255.97 407.921C260.007 408.668 263.994 409.702 268.005 410.59C271.513 411.364 275.033 412.1 278.527 412.847C279.352 410.94 280.112 409.179 280.964 407.212C271.376 405.792 261.811 404.375 251.92 402.91V402.904ZM18.8704 360.922C15.7719 363.068 12.781 365.14 9.40138 367.477C11.9526 368.431 14.0103 369.199 16.2026 370.018C16.2026 368.458 16.1607 367.119 16.2175 365.782C16.2564 364.808 16.9383 364.377 17.8326 364.41C18.7059 364.443 18.9452 365.047 18.9272 365.86C18.8913 367.37 18.9183 368.882 18.9183 370.482C19.3071 370.389 19.4955 370.338 19.6869 370.299C21.607 369.917 21.8014 370.057 21.8164 372.042C21.8373 375.417 21.8284 378.795 21.8313 382.17C21.8313 383.614 21.8313 385.061 21.8313 386.816C24.8042 384.481 27.4063 382.436 30.0651 380.347C29.8079 380.128 29.6793 379.973 29.5118 379.886C24.6517 377.283 22.7286 372.736 24.885 367.179C25.0016 366.88 24.8551 366.294 24.6158 366.072C22.7675 364.354 20.8653 362.691 18.8734 360.916L18.8704 360.922ZM391.608 302.474H344.774C344.962 303.042 345.265 303.514 345.244 303.971C345.187 305.155 345.863 305.263 346.757 305.206C347.104 305.185 347.454 305.224 347.801 305.224C359.677 305.296 371.554 305.367 383.431 305.433C386.143 305.448 388.859 305.433 391.608 305.433V302.471V302.474ZM139.019 317.672C139.061 316.808 139.093 316.27 139.111 315.735C139.191 313.618 138.208 312.401 136.162 312.084C135.965 312.055 135.768 312.034 135.573 311.998C130.27 311.026 124.95 310.147 119.68 309.029C117.724 308.614 116.839 309.696 115.627 310.844C123.487 313.14 131.177 315.385 139.016 317.675L139.019 317.672ZM104.735 298.005C104.785 298.145 104.836 298.283 104.884 298.423H117.556C115.466 295.688 113.42 293.015 111.27 290.199C109.035 292.866 106.885 295.434 104.732 298.005H104.735ZM267.891 402.366C267.891 400.372 267.918 398.456 267.861 396.543C267.852 396.274 267.452 395.823 267.185 395.781C264.85 395.431 262.505 395.156 259.936 394.827V401.015C262.595 401.467 265.176 401.903 267.894 402.366H267.891ZM168.287 230.717C167.937 234.848 167.973 234.905 171.377 235.906C171.565 235.963 171.745 236.062 171.936 236.101C173.982 236.495 176.03 236.878 178.061 237.264C178.259 235.999 178.408 235.054 178.579 233.957C175.151 232.878 171.792 231.823 168.287 230.72V230.717ZM65.2465 348.008C68.5843 345.353 71.7755 342.818 75.1342 340.149C71.9729 340.489 69.0658 340.764 66.1766 341.165C65.8177 341.216 65.3123 341.921 65.2884 342.349C65.1897 344.131 65.2465 345.918 65.2465 348.011V348.008ZM369.724 288.935C369.918 285.981 368.782 284.558 366.338 284.561C363.192 284.567 361.873 285.904 362.136 288.935H369.724ZM28.6983 363.152C28.5308 362.129 28.2347 361.161 28.2467 360.195C28.2587 359.033 27.5887 358.575 26.6885 358.411C24.9209 358.088 23.2101 358.273 21.6549 359.337C23.566 361.014 25.4084 362.632 27.3225 364.312C27.7682 363.935 28.2467 363.531 28.6983 363.152ZM50.1427 348.731C47.7979 349.604 47.2924 349.942 47.759 351.933C48.3631 354.51 49.5415 356.952 50.4717 359.451C50.5644 359.406 50.6571 359.361 50.7468 359.316C50.5465 355.843 50.3491 352.372 50.1397 348.731H50.1427ZM293.867 321.124C293.867 322.514 293.906 323.889 293.855 325.262C293.819 326.245 294.118 326.78 295.195 326.673C295.616 326.631 296.05 326.667 296.505 326.667V321.124H293.867ZM265.418 320.413C265.418 321.662 265.502 322.852 265.397 324.03C265.259 325.596 265.929 326.066 267.613 325.719C267.613 324.532 267.604 323.31 267.613 322.09C267.634 320.126 267.64 320.126 265.415 320.416L265.418 320.413ZM240.866 325.076V320.18H238.787C238.787 321.292 238.847 322.323 238.775 323.348C238.638 325.3 238.757 325.426 240.866 325.076ZM251.469 320.425V325.483H253.446V320.425H251.469ZM281.658 321.047C281.159 320.975 280.593 320.891 279.873 320.787V326.042H281.658V321.047ZM267.778 317.752C267.787 316.476 267.658 316.413 265.591 316.667C265.505 318.093 265.759 318.219 267.778 317.752ZM294.148 318.817C295.027 318.631 295.673 318.533 296.28 318.323C296.37 318.293 296.358 317.483 296.251 317.444C295.643 317.235 294.994 317.151 294.238 317.002C294.205 317.633 294.187 318.051 294.148 318.817ZM228.956 324.795V322.383C228.14 323.244 227.506 323.91 226.665 324.795H228.956ZM279.84 318.32C280.928 318.299 282.08 318.643 281.829 316.856C281.222 316.823 280.617 316.793 279.924 316.757C279.894 317.319 279.873 317.737 279.84 318.32ZM251.582 317.678H253.398C253.763 316.745 253.389 316.479 252.557 316.503C251.792 316.524 251.152 316.583 251.582 317.678ZM240.899 316.013C240.157 316.267 239.55 316.473 238.946 316.679C239.149 316.927 239.326 317.358 239.562 317.391C240.259 317.489 241.144 317.66 240.899 316.013Z" fill="#045486"/>
<path d="M288.084 405.589C287.809 404.97 287.474 404.525 287.432 404.055C287.381 403.472 287.378 402.734 287.683 402.292C289.376 399.846 291.132 397.446 292.935 395.078C299.186 386.875 305.419 378.658 311.757 370.524C313.796 367.905 316.138 365.519 318.342 363.029C318.474 362.88 318.603 362.653 318.764 362.62C319.389 362.494 320.029 362.434 320.66 362.348C320.675 362.972 320.945 363.774 320.657 364.189C319.679 365.612 318.48 366.88 317.409 368.243C310.725 376.738 304.016 385.216 297.389 393.754C294.805 397.081 292.415 400.558 289.908 403.945C289.58 404.39 289.077 404.707 288.084 405.589Z" fill="#045486"/>
<path d="M356.859 461.999C357.012 461.694 357.227 461.021 357.625 460.483C362.18 454.292 366.639 448.026 371.374 441.976C376.563 435.343 382.009 428.909 387.351 422.396C387.602 422.091 387.901 421.816 388.212 421.57C388.909 421.026 389.696 420.551 390.453 421.376C391.155 422.138 390.65 422.844 390.106 423.475C388.712 425.086 387.249 426.643 385.927 428.315C378.944 437.139 371.966 445.973 365.048 454.848C363.224 457.189 361.627 459.703 359.898 462.121C359.557 462.6 359.156 463.081 358.678 463.401C357.745 464.022 356.895 463.508 356.859 462.002V461.999Z" fill="#045486"/>
<path d="M297.448 412.65C296.979 413.481 296.641 414.244 296.159 414.907C291.786 420.931 287.324 426.892 283.02 432.96C279.949 437.289 277.078 441.755 274.117 446.158C273.572 446.965 273.154 448.053 271.835 447.348C270.857 446.825 270.68 445.761 271.527 444.49C273.474 441.558 275.471 438.655 277.508 435.785C281.328 430.407 285.168 425.038 289.05 419.705C290.919 417.137 292.875 414.629 294.873 412.163C295.202 411.76 295.959 411.562 296.524 411.553C296.799 411.547 297.086 412.196 297.448 412.65Z" fill="#045486"/>
<path d="M292.44 438.708C291.127 438.642 290.652 437.967 291.002 437.121C291.543 435.82 292.216 434.526 293.065 433.408C299.257 425.292 305.495 417.208 311.755 409.143C312.844 407.741 314.109 406.471 315.296 405.143C315.904 404.465 316.6 403.951 317.459 404.701C318.308 405.445 317.907 406.228 317.339 406.925C315.308 409.421 313.191 411.848 311.241 414.407C306.279 420.912 301.389 427.468 296.481 434.012C295.53 435.282 294.669 436.621 293.679 437.862C293.341 438.286 292.742 438.508 292.437 438.705L292.44 438.708Z" fill="#045486"/>
<path d="M178.261 460.754C177.66 460.396 176.918 460.192 176.855 459.861C176.739 459.245 176.816 458.414 177.163 457.915C178.467 456.046 179.864 454.235 181.315 452.477C186.872 445.739 192.456 439.022 198.051 432.317C199.29 430.831 200.618 429.423 201.916 427.985C202.636 427.184 203.501 426.846 204.383 427.65C205.289 428.478 204.571 429.154 204.009 429.803C199.822 434.639 195.521 439.38 191.487 444.34C187.452 449.302 183.695 454.489 179.783 459.553C179.424 460.016 178.841 460.306 178.261 460.754Z" fill="#045486"/>
<path d="M335.934 441.123C335.856 441.27 335.731 441.644 335.5 441.933C328.538 450.642 321.569 459.347 314.582 468.037C314.047 468.703 313.422 469.582 312.387 468.706C311.484 467.944 311.583 467.089 312.288 466.231C312.447 466.04 312.576 465.825 312.728 465.63C316.464 460.871 320.166 456.088 323.95 451.368C326.713 447.924 329.582 444.567 332.42 441.186C332.833 440.696 333.287 440.209 333.811 439.853C334.827 439.165 335.874 439.706 335.934 441.126V441.123Z" fill="#045486"/>
<path d="M251.715 460.142C250.543 460.112 249.957 459.236 250.465 458.31C251.144 457.069 251.985 455.885 252.912 454.812C255.986 451.252 259.127 447.751 262.252 444.236C262.512 443.943 262.812 443.566 263.149 443.494C263.67 443.384 264.451 443.294 264.735 443.578C265.085 443.931 265.342 444.878 265.114 445.216C264.262 446.472 263.215 447.602 262.201 448.747C259.112 452.238 256.01 455.718 252.891 459.186C252.514 459.607 252.006 459.912 251.718 460.145L251.715 460.142Z" fill="#045486"/>
<path d="M373.169 403.621C374.049 403.738 374.937 403.801 375.801 403.986C376.959 404.231 377.796 404.832 377.877 406.162C377.964 407.615 377.542 408.88 376.229 409.537C375.754 409.776 374.91 409.504 374.348 409.229C374.156 409.137 374.15 408.24 374.348 407.86C374.907 406.784 374.339 406.297 373.48 406.494C371.683 406.913 369.945 407.597 368.184 408.183C368.049 408.228 367.947 408.365 367.825 408.446C367.017 408.978 366.165 409.537 365.277 408.682C364.595 408.028 364.921 406.62 366.042 405.86C368.172 404.42 370.505 403.505 373.166 403.618L373.169 403.621Z" fill="#045486"/>
<path d="M422.049 312.105C422.049 310.868 421.947 309.618 422.102 308.402C422.159 307.971 422.793 307.385 423.251 307.284C423.996 307.122 424.878 307.131 425.578 307.397C426.101 307.597 426.768 308.306 426.78 308.802C426.834 311.065 426.628 313.334 426.625 315.6C426.625 316.766 426.179 317.184 425.042 317.178C421.968 317.163 421.926 317.151 421.914 314.034C421.914 313.391 421.914 312.745 421.914 312.102C421.959 312.102 422.004 312.102 422.046 312.102L422.049 312.105Z" fill="#045486"/>
<path d="M411.055 312.479C411.055 311.391 411.094 310.3 411.043 309.215C410.992 308.127 411.575 307.643 412.541 307.604C413.277 307.574 414.082 307.568 414.734 307.843C415.203 308.04 415.751 308.71 415.775 309.188C415.87 311.361 415.837 313.547 415.76 315.723C415.703 317.349 415.287 317.526 412.736 317.427C411.414 317.376 410.875 316.79 411.013 315.451C411.112 314.47 411.034 313.472 411.034 312.479C411.043 312.479 411.052 312.479 411.058 312.479H411.055Z" fill="#045486"/>
<path d="M400.605 312.447C400.605 311.305 400.605 310.16 400.605 309.018C400.605 308.097 401.134 307.69 401.98 307.592C404.609 307.287 405.351 307.968 405.33 310.638C405.318 312.124 405.348 313.609 405.33 315.095C405.312 316.823 405.049 317.077 403.353 317.098C402.955 317.104 402.558 317.104 402.16 317.11C401.119 317.125 400.596 316.647 400.625 315.573C400.652 314.533 400.631 313.49 400.631 312.447C400.622 312.447 400.611 312.447 400.602 312.447H400.605Z" fill="#045486"/>
<path d="M284.847 349.397C287.323 349.397 289.796 349.412 292.273 349.388C293.266 349.379 293.924 349.696 293.972 350.784C294.022 351.947 293.382 352.59 292.297 352.625C290.966 352.67 289.626 352.536 288.292 352.479C286.509 352.401 284.721 352.365 282.941 352.234C281.895 352.156 281.174 351.702 281.314 350.425C281.449 349.203 282.23 349.038 283.208 349.062C283.755 349.074 284.299 349.062 284.847 349.062C284.847 349.173 284.847 349.283 284.847 349.394V349.397Z" fill="#045486"/>
<path d="M412.649 407.209C412.452 408.584 412.018 409.248 410.831 408.931C410.259 408.778 409.679 408.629 409.141 408.39C407.197 407.532 405.489 407.819 403.949 409.289C403.608 409.615 403.165 409.917 402.719 410.028C401.508 410.327 400.449 409.272 401.077 408.255C401.759 407.146 402.797 405.995 403.952 405.493C406.452 404.411 409.096 404.566 411.53 405.923C412.054 406.213 412.371 406.874 412.649 407.209Z" fill="#045486"/>
<path d="M353.378 369.074C351.264 368.982 349.146 368.868 347.032 368.802C346.018 368.769 345.261 368.261 345.44 367.317C345.566 366.656 346.362 365.628 346.87 365.622C349.975 365.577 353.088 365.717 356.184 365.968C356.62 366.004 357.362 367.042 357.284 367.505C357.186 368.091 356.48 368.805 355.882 369.014C355.131 369.275 354.222 369.077 353.378 369.077V369.074Z" fill="#045486"/>
<path d="M389.882 402.047C388.856 402.271 387.546 402.644 386.209 402.815C385.521 402.902 384.51 402.869 384.13 402.45C383.451 401.703 383.954 400.701 384.756 400.349C386.119 399.748 387.576 399.201 389.038 399.045C390.16 398.926 391.371 399.371 392.505 399.703C393.653 400.041 394.162 401.225 393.767 402.316C393.405 403.314 392.053 404.052 391.111 403.613C390.692 403.416 390.465 402.818 389.882 402.047Z" fill="#045486"/>
<path d="M230.657 347.227C232.09 347.341 233.526 347.403 234.949 347.58C236.062 347.717 236.334 348.683 236.032 349.466C235.811 350.043 234.976 350.74 234.396 350.757C232.228 350.829 230.05 350.632 227.876 350.56C226.599 350.518 225.735 349.819 225.836 348.764C225.95 347.598 226.695 347.182 227.819 347.29C228.313 347.338 228.812 347.308 229.312 347.308C229.757 347.308 230.206 347.308 230.651 347.308C230.651 347.281 230.654 347.254 230.657 347.227Z" fill="#045486"/>
<path d="M214.607 343.132C215.747 343.132 216.886 343.094 218.023 343.144C219.078 343.192 219.82 343.626 219.817 344.854C219.814 346.14 219.063 346.415 217.966 346.382C215.768 346.316 213.566 346.319 211.368 346.247C210.387 346.214 209.367 346.008 209.391 344.747C209.418 343.479 210.267 342.962 211.491 342.98C212.528 342.995 213.569 342.983 214.607 342.983C214.607 343.034 214.607 343.082 214.607 343.132Z" fill="#045486"/>
<path d="M426.119 408.814C427.342 409.173 428.589 409.472 429.786 409.906C430.791 410.27 431.087 411.146 430.767 412.097C430.423 413.122 429.6 413.164 428.694 412.823C426.992 412.18 425.344 412.094 423.711 413.116C422.955 413.591 421.899 413.738 421.519 412.787C421.268 412.16 421.456 411.062 421.884 410.521C422.901 409.236 424.465 408.994 426.119 408.817V408.814Z" fill="#045486"/>
<path d="M387.677 352.988C388.766 352.988 389.863 352.923 390.946 353.006C392.125 353.096 392.504 353.933 392.474 354.997C392.442 356.154 391.679 356.552 390.677 356.522C388.649 356.459 386.624 356.295 384.597 356.238C383.49 356.205 382.931 355.745 382.946 354.621C382.961 353.461 383.526 352.884 384.695 352.893C385.688 352.902 386.681 352.893 387.674 352.893C387.674 352.926 387.674 352.955 387.674 352.988H387.677Z" fill="#045486"/>
<path d="M256.898 361.651C257.986 361.651 259.078 361.628 260.167 361.657C261.261 361.687 261.842 362.381 261.773 363.382C261.716 364.246 261.246 364.967 260.164 364.946C258.088 364.904 256.009 364.922 253.934 364.841C252.92 364.802 252.22 364.24 252.268 363.149C252.316 362.052 253.04 361.622 254.077 361.628C255.017 361.633 255.956 361.628 256.895 361.628C256.895 361.633 256.895 361.639 256.895 361.645L256.898 361.651Z" fill="#045486"/>
<path d="M412.668 359.49C411.726 359.49 410.784 359.505 409.842 359.487C408.768 359.463 408.035 359.086 408.047 357.834C408.056 356.605 408.717 356.139 409.836 356.166C411.672 356.207 413.505 356.267 415.339 356.351C416.445 356.402 417.331 356.811 417.298 358.1C417.265 359.475 416.311 359.606 415.204 359.535C414.361 359.481 413.514 359.523 412.668 359.523C412.668 359.514 412.668 359.505 412.668 359.493V359.49Z" fill="#045486"/>
<path d="M316.976 346.657C317.918 346.657 318.896 346.51 319.794 346.71C320.38 346.842 321.271 347.47 321.28 347.888C321.289 348.492 320.673 349.153 320.215 349.697C320.045 349.9 319.566 349.897 319.228 349.891C317.446 349.87 315.66 349.822 313.878 349.775C312.882 349.748 312.026 349.392 312.023 348.286C312.02 347.192 312.705 346.582 313.857 346.591C314.898 346.6 315.938 346.591 316.979 346.591C316.979 346.612 316.979 346.633 316.979 346.654L316.976 346.657Z" fill="#045486"/>
<path d="M208.43 362.796C209.22 362.796 210.009 362.805 210.799 362.796C211.777 362.784 212.291 363.253 212.267 364.231C212.243 365.169 211.932 365.872 210.799 365.851C209.261 365.821 207.727 365.836 206.19 365.812C205.014 365.791 204.476 365.104 204.518 364.001C204.563 362.85 205.364 362.554 206.366 362.593C207.054 362.62 207.742 362.661 208.43 362.694C208.43 362.73 208.43 362.766 208.43 362.799V362.796Z" fill="#045486"/>
<path d="M291.437 373.355C290.405 373.25 289.373 373.148 288.341 373.041C287.402 372.942 286.744 372.386 286.989 371.489C287.148 370.909 287.883 370.093 288.386 370.078C290.204 370.022 292.047 370.162 293.844 370.449C294.26 370.515 294.843 371.474 294.795 371.971C294.75 372.437 294.045 373.029 293.509 373.214C292.89 373.429 292.139 373.265 291.445 373.265C291.445 373.295 291.44 373.325 291.44 373.358L291.437 373.355Z" fill="#045486"/>
<path d="M241.142 383.488C241.142 382.496 241.005 381.48 241.193 380.526C241.31 379.943 241.926 379.459 242.318 378.93C242.76 379.342 243.547 379.725 243.586 380.176C243.777 382.287 243.855 384.421 243.75 386.538C243.726 386.995 242.775 387.405 242.252 387.835C241.914 387.372 241.364 386.944 241.28 386.439C241.124 385.479 241.235 384.475 241.235 383.491C241.205 383.491 241.172 383.491 241.142 383.491V383.488Z" fill="#045486"/>
<path d="M238.844 385.147C238.844 386.038 238.969 386.953 238.796 387.811C238.697 388.298 238.105 389.049 237.752 389.037C237.229 389.022 236.311 388.472 236.281 388.089C236.113 386.074 236.083 384.038 236.215 382.024C236.245 381.584 237.13 381.201 237.621 380.795C237.991 381.255 238.596 381.674 238.685 382.185C238.859 383.145 238.736 384.158 238.736 385.147H238.847H238.844Z" fill="#045486"/>
<path d="M248.939 381.109C249.005 382.087 249.109 382.927 249.1 383.764C249.088 384.649 248.634 385.456 247.712 385.303C247.189 385.217 246.45 384.433 246.397 383.904C246.223 382.197 246.259 380.46 246.346 378.742C246.385 377.952 246.854 377.354 247.826 377.456C248.702 377.549 248.993 378.036 248.948 378.867C248.906 379.659 248.939 380.454 248.939 381.109Z" fill="#045486"/>
<path d="M170.233 368.512C171.028 368.512 171.83 368.455 172.616 368.527C173.651 368.62 174.306 369.235 174.204 370.291C174.115 371.214 173.549 371.797 172.5 371.767C171.058 371.726 169.616 371.782 168.178 371.705C167.173 371.651 166.063 371.498 166.078 370.141C166.093 368.844 167.023 368.545 168.151 368.587C168.845 368.611 169.539 368.593 170.233 368.593C170.233 368.566 170.233 368.542 170.233 368.515V368.512Z" fill="#045486"/>
<path d="M184.098 365.209C183.407 365.248 182.662 365.463 182.043 365.269C181.502 365.098 180.781 364.506 180.73 364.037C180.676 363.553 181.268 362.608 181.699 362.53C183.434 362.217 185.219 362.037 186.978 362.082C187.525 362.097 188.049 362.979 188.581 363.466C188.114 363.965 187.729 364.713 187.157 364.904C186.203 365.224 185.13 365.188 184.107 365.305C184.104 365.272 184.101 365.242 184.098 365.209Z" fill="#045486"/>
<path d="M169.686 352.177C170.67 352.237 171.654 352.327 172.641 352.351C173.787 352.381 174.029 353.113 174.044 354.04C174.056 355.053 173.38 355.256 172.554 355.253C171.229 355.247 169.901 355.217 168.576 355.232C167.404 355.247 166.558 354.769 166.62 353.546C166.68 352.395 167.572 352.034 168.651 352.117C168.995 352.144 169.342 352.165 169.686 352.186C169.686 352.18 169.686 352.177 169.686 352.171V352.177Z" fill="#045486"/>
<path d="M388.799 374.786C389.49 374.786 390.184 374.766 390.875 374.792C391.847 374.828 392.499 375.223 392.421 376.326C392.353 377.336 391.922 378.057 390.803 378.033C389.475 378.006 388.147 377.937 386.825 377.827C385.71 377.734 385.321 376.954 385.381 375.961C385.441 374.981 386.096 374.667 387.02 374.736C387.609 374.78 388.204 374.745 388.799 374.745C388.799 374.76 388.799 374.774 388.799 374.786Z" fill="#045486"/>
<path d="M381.418 365.828C382.028 365.884 383.087 365.863 384.08 366.118C384.573 366.243 385.321 366.919 385.276 367.256C385.198 367.854 384.636 368.829 384.217 368.862C382.563 368.987 380.868 368.928 379.232 368.661C378.783 368.59 378.242 367.555 378.227 366.952C378.218 366.587 379.106 366.115 379.668 365.857C380.039 365.69 380.545 365.825 381.418 365.825V365.828Z" fill="#045486"/>
<path d="M167.235 360.922C165.602 360.796 164.411 360.727 163.227 360.605C162.234 360.503 161.642 359.926 161.809 358.91C161.971 357.932 162.689 357.765 163.616 357.869C164.797 358.007 165.994 358.028 167.184 358.022C168.21 358.016 169.194 358.079 169.221 359.379C169.251 360.667 168.183 360.772 167.232 360.916C167.085 360.937 166.936 360.919 167.232 360.919L167.235 360.922Z" fill="#045486"/>
<path d="M381.373 346.833C382.261 346.878 383.296 346.937 384.331 346.985C385.273 347.027 385.826 347.487 385.814 348.45C385.802 349.475 385.216 350.004 384.208 349.954C383.129 349.897 382.049 349.771 380.975 349.634C380.093 349.52 379.214 349.215 379.312 348.139C379.408 347.081 380.174 346.65 381.376 346.836L381.373 346.833Z" fill="#045486"/>
<path d="M380.891 384.021C380.371 383.946 379.587 383.857 378.812 383.713C377.808 383.528 377.353 382.855 377.529 381.887C377.703 380.93 378.277 380.443 379.348 380.682C380.209 380.873 381.094 381.002 381.977 381.044C383.101 381.097 383.625 381.603 383.502 382.724C383.377 383.88 382.641 384.173 381.603 384.027C381.456 384.006 381.307 384.027 380.891 384.027V384.021Z" fill="#045486"/>
<path d="M379.065 357.678C378.281 357.595 377.492 357.541 376.711 357.421C375.41 357.221 374.686 356.139 375.147 354.961C375.279 354.623 375.826 354.241 376.188 354.235C377.214 354.22 378.24 354.411 379.268 354.477C380.327 354.546 381 355.069 380.955 356.127C380.907 357.233 380.205 357.783 379.068 357.678H379.065Z" fill="#045486"/>
<path d="M187.306 352.955C186.588 352.955 186.131 353.083 185.814 352.925C185.299 352.668 184.471 352.19 184.501 351.87C184.558 351.257 185.015 350.318 185.497 350.184C186.702 349.843 188.021 349.759 189.28 349.819C189.705 349.84 190.417 350.608 190.417 351.033C190.417 351.565 189.932 352.342 189.448 352.572C188.727 352.916 187.821 352.874 187.306 352.952V352.955Z" fill="#045486"/>
<path d="M190.159 371.773C189.761 371.773 189.289 371.908 188.984 371.74C188.529 371.492 187.886 371.035 187.883 370.658C187.877 370.147 188.284 369.334 188.711 369.172C189.71 368.793 190.826 368.586 191.894 368.583C192.438 368.583 193.392 369.134 193.431 369.51C193.491 370.096 193.084 370.984 192.587 371.307C191.932 371.731 191.002 371.731 190.189 371.914C190.18 371.866 190.171 371.821 190.159 371.773Z" fill="#045486"/>
<path d="M174.64 318.329C174.64 317.286 174.667 316.243 174.631 315.199C174.595 314.21 175.095 313.741 176.013 313.609C176.112 313.594 176.211 313.585 176.309 313.576C179.737 313.262 180.06 313.564 180.021 316.981C180.006 318.272 180.027 319.564 180.009 320.855C179.982 322.643 179.163 323.462 177.455 323.262C175.286 323.008 174.479 323.381 174.646 320.254C174.682 319.615 174.652 318.969 174.652 318.329C174.646 318.329 174.643 318.329 174.637 318.329H174.64Z" fill="#045486"/>
<path d="M386.105 318.022C386.105 318.865 386.031 319.717 386.123 320.551C386.279 321.935 385.621 322.464 384.347 322.485C383.85 322.494 383.354 322.488 382.857 322.509C381.494 322.559 380.812 321.863 380.794 320.545C380.773 318.709 380.83 316.874 380.821 315.041C380.818 313.944 381.389 313.385 382.418 313.283C383.154 313.209 383.901 313.209 384.643 313.224C385.615 313.248 386.076 313.819 386.094 314.748C386.114 315.839 386.1 316.93 386.1 318.022C386.1 318.022 386.102 318.022 386.105 318.022Z" fill="#045486"/>
<path d="M168.165 330.896C167.131 330.806 166.093 330.711 165.058 330.627C163.906 330.534 163.317 329.871 163.398 328.767C163.479 327.682 164.265 327.482 165.234 327.572C166.715 327.709 168.204 327.778 169.691 327.865C170.669 327.921 171.339 328.382 171.342 329.392C171.345 330.433 170.648 330.851 169.664 330.851C169.167 330.851 168.668 330.851 168.171 330.851C168.171 330.866 168.168 330.884 168.165 330.899V330.896Z" fill="#045486"/>
<path d="M392.557 304.572C393.403 304.572 394.28 304.435 395.081 304.623C395.569 304.737 396.31 305.391 396.272 305.729C396.212 306.264 395.644 307.11 395.207 307.167C393.496 307.394 391.749 307.409 390.018 307.409C389.117 307.409 388.352 306.886 388.603 305.939C388.744 305.403 389.464 304.809 390.042 304.647C390.825 304.426 391.717 304.593 392.56 304.593V304.572H392.557Z" fill="#045486"/>
<path d="M183.14 335.521C182.736 335.491 182.195 335.438 181.653 335.417C180.738 335.381 180.137 334.822 180.334 334.021C180.49 333.393 181.124 332.517 181.668 332.418C183.056 332.164 184.525 332.173 185.933 332.32C186.415 332.37 187.073 333.085 187.201 333.608C187.39 334.373 187.133 335.234 186.071 335.339C185.141 335.432 184.205 335.458 183.14 335.524V335.521Z" fill="#045486"/>
<path d="M186.217 304.922C186.86 304.922 187.605 304.716 188.114 304.976C188.7 305.275 189.343 305.923 189.477 306.53C189.693 307.508 188.906 307.899 187.988 307.863C186.807 307.815 185.595 307.872 184.465 307.6C183.926 307.472 183.541 306.694 183.086 306.213C183.585 305.768 184.028 305.194 184.608 304.916C185.051 304.707 185.673 304.874 186.217 304.874C186.217 304.889 186.217 304.907 186.217 304.922Z" fill="#045486"/>
<path d="M362.213 331.288C362.189 332.672 361.393 333.392 360.43 333.06C358.989 332.564 357.574 331.963 356.225 331.258C355.489 330.872 355.098 330.146 355.627 329.246C356.12 328.406 356.79 328.493 357.541 328.804C358.77 329.315 360.032 329.76 361.226 330.343C361.689 330.57 362.012 331.087 362.213 331.288Z" fill="#045486"/>
<path d="M355.772 319.369C355.772 321.294 355.751 323.222 355.781 325.147C355.796 326.176 355.332 326.785 354.318 326.791C352.841 326.8 351.324 326.884 349.907 326.57C349.255 326.427 348.345 325.425 348.325 324.789C348.196 320.843 348.205 316.888 348.351 312.942C348.411 311.324 350.397 310.589 353.301 310.855C354.982 311.011 355.978 312.054 355.966 313.605C355.951 315.524 355.963 317.447 355.963 319.366C355.9 319.366 355.838 319.366 355.772 319.366V319.369ZM353.095 318.771C351.025 318.568 350.992 318.592 350.98 320.388C350.974 321.282 350.879 322.197 351.046 323.058C351.121 323.437 351.728 323.889 352.15 323.954C352.41 323.996 353.026 323.389 353.05 323.043C353.155 321.62 353.095 320.185 353.095 318.771ZM353.322 315.871C353.065 315.055 352.972 314.397 352.64 313.898C352.524 313.722 351.567 313.776 351.45 313.985C351.148 314.511 351.106 315.187 350.942 315.871H353.322Z" fill="#045486"/>
<path d="M375.228 319.107C375.228 317.125 375.246 315.143 375.222 313.164C375.207 311.914 375.937 311.322 377.031 311.221C378.213 311.113 379.412 311.173 380.602 311.194C382.047 311.221 382.858 312.061 382.887 313.421C382.971 317.295 383.01 321.172 382.887 325.043C382.869 325.62 381.948 326.577 381.356 326.655C379.705 326.87 378 326.777 376.323 326.676C375.449 326.622 375.144 325.958 375.165 325.073C375.213 323.085 375.18 321.097 375.18 319.11C375.195 319.11 375.21 319.11 375.225 319.11L375.228 319.107ZM378.066 323.821C380.199 324.206 380.253 324.171 380.264 322.332C380.273 321.145 380.264 319.962 380.264 318.625H378.066V323.821ZM377.932 315.833H380.309C379.944 315.062 380.824 313.953 379.307 313.824C377.797 313.696 378.195 314.847 377.935 315.833H377.932Z" fill="#045486"/>
<path d="M361.93 319.89C362.061 317.714 362.172 315.538 362.336 313.364C362.45 311.873 363.338 311.176 364.804 311.17C365.351 311.17 365.896 311.152 366.443 311.17C368.916 311.248 369.649 311.995 369.628 314.515C369.601 317.98 369.491 321.442 369.502 324.906C369.508 326.171 368.928 326.715 367.783 326.864C367.391 326.915 366.996 326.966 366.601 326.972C363.578 327.011 361.544 327.396 362.043 322.727C362.142 321.794 362.058 320.841 362.058 319.899C362.016 319.899 361.972 319.896 361.93 319.893V319.89ZM365.04 318.954C365.04 320.548 364.986 321.983 365.079 323.409C365.103 323.761 365.602 324.084 365.884 324.422C366.195 324.069 366.751 323.734 366.775 323.361C366.88 321.902 366.817 320.428 366.817 318.954H365.037H365.04ZM365.133 313.935V316.147H366.754C367.047 313.992 366.915 313.807 365.133 313.935Z" fill="#045486"/>
</g>
<defs>
<clipPath id="clip0_3129_13987">
<rect width="425" height="450" fill="white"/>
</clipPath>
</defs>
</svg>
