<svg width="24" height="24" viewBox="0 0 24 24" fill="none" xmlns="http://www.w3.org/2000/svg">
<path fill-rule="evenodd" clip-rule="evenodd" d="M14.2821 2.31294C14.5818 2.62984 14.6415 3.10441 14.4297 3.48568C14.4153 3.51153 14.401 3.53723 14.3868 3.56277C14.0959 4.08504 13.8384 4.54725 13.8471 5.1256C13.8552 5.66548 14.244 6.64752 15.5338 7.73574C17.2794 9.20864 18.1423 11.0244 18.569 12.4472C18.7828 13.1602 18.8901 13.784 18.9442 14.2342C18.9714 14.4597 18.9853 14.643 18.9924 14.7738C18.996 14.8392 18.9979 14.8916 18.9989 14.9297C18.9994 14.9488 18.9997 14.9643 18.9998 14.976L19 14.9909L19 14.9962L19 14.9983C19 14.9983 19 15 18 15H19C19 18.866 15.866 22 12 22C8.13401 22 5 18.866 5 15C5 13.0708 5.27082 11.3872 5.65531 10.1373C5.84643 9.51606 6.07537 8.97001 6.33429 8.54645C6.46359 8.33495 6.61569 8.1286 6.79493 7.95593C6.96706 7.79011 7.22146 7.60021 7.55827 7.52443C7.83311 7.46259 8.12129 7.51954 8.35194 7.6813C8.5826 7.84305 8.73432 8.09459 8.76981 8.37406C8.80188 8.62658 8.90678 8.99636 9.07376 9.38677C9.06542 8.72353 9.11444 8.0194 9.25001 7.31185C9.62771 5.34067 10.6991 3.27308 13.1195 2.10014C13.5119 1.90993 13.9824 1.99605 14.2821 2.31294ZM17 15.0027C16.9986 17.7629 14.7605 20 12 20C9.23858 20 7 17.7615 7 15C7 13.2915 7.23503 11.8401 7.54224 10.8069C7.62101 10.9513 7.70476 11.0928 7.79301 11.2296C8.29556 12.0087 9.18578 13 10.4444 13C10.7595 13 11.0562 12.8515 11.245 12.5993C11.4338 12.3471 11.4927 12.0206 11.4039 11.7183C11.1444 10.8344 10.9153 9.24848 11.2143 7.68822C11.3418 7.02257 11.5613 6.37519 11.9093 5.7881C12.1118 6.90179 12.8212 8.06382 14.244 9.26433C15.6095 10.4164 16.3021 11.8506 16.6533 13.0216C16.8283 13.6055 16.9154 14.1145 16.9585 14.4729C16.98 14.6517 16.9904 14.7916 16.9954 14.883C16.9979 14.9287 16.9991 14.9621 16.9996 14.982L17 15.0016L17 15.0027Z" fill="#424242"/>
</svg>
