<svg width="24" height="24" viewBox="0 0 24 24" fill="none" xmlns="http://www.w3.org/2000/svg">
<path fill-rule="evenodd" clip-rule="evenodd" d="M10.9715 20.2157L11.9994 18.5L13.053 20.2C12.4168 20.5943 11.6136 20.6003 10.9715 20.2157ZM10.4916 6.50745C9.71856 5.98243 8.70865 5.5 7.60747 5.5C5.08212 5.5 3.59985 7.35714 4.09394 9.90625C4.93987 14.2706 11.9994 18.5 11.9994 18.5C10.9715 20.2157 10.9719 20.2159 10.9715 20.2157L10.9675 20.2133L10.9609 20.2093L10.9402 20.1967C10.9231 20.1863 10.8993 20.1718 10.8694 20.1533C10.8096 20.1164 10.725 20.0636 10.6189 19.996C10.4069 19.8607 10.1081 19.6655 9.74906 19.4184C9.03368 18.9259 8.06543 18.2178 7.06254 17.3585C6.06529 16.5039 4.99565 15.4675 4.10359 14.3133C3.22404 13.1752 2.42468 11.8047 2.13048 10.2868C1.7948 8.55495 2.09657 6.8269 3.15486 5.50009C4.21997 4.16473 5.84152 3.5 7.60747 3.5C9.43114 3.5 10.947 4.35898 11.8875 5.04462C11.9254 5.07223 11.9627 5.09983 11.9994 5.12737C12.0361 5.09983 12.0734 5.07223 12.1113 5.04462C13.0517 4.35898 14.5676 3.5 16.3913 3.5C20.3364 3.5 22.6123 7.15474 21.8509 10.3675C21.5018 11.8405 20.693 13.1821 19.8118 14.3083C18.9183 15.4501 17.8623 16.4815 16.8797 17.336C15.8921 18.1949 14.9444 18.9046 14.245 19.3991C13.8941 19.6473 13.6027 19.8434 13.396 19.9793C13.2927 20.0473 13.2103 20.1003 13.1521 20.1374C13.1374 20.1468 13.1242 20.1552 13.1126 20.1625C13.1013 20.1697 13.0915 20.1759 13.0833 20.181L13.0632 20.1936L13.0569 20.1976L13.053 20.2C13.0526 20.2002 13.053 20.2 11.9994 18.5C11.9994 18.5 18.8786 14.2363 19.9048 9.90625C20.3989 7.82142 18.9167 5.5 16.3913 5.5C15.2901 5.5 14.2802 5.98243 13.5072 6.50745C12.5845 7.13411 11.9994 7.82143 11.9994 7.82143C11.9994 7.82143 11.4142 7.13411 10.4916 6.50745Z" fill="#424242"/>
</svg>
