<svg width="152" height="44" viewBox="0 0 152 44" fill="none" xmlns="http://www.w3.org/2000/svg">
<path d="M21.6163 19.6805C21.2715 19.4552 20.9735 19.3383 20.7819 19.1254C18.6658 16.7964 16.5498 14.4674 14.4763 12.0966C14.2124 11.7961 14.0974 11.2785 14.1017 10.8611C14.1102 8.98289 14.1655 7.10464 14.2337 5.23057C14.289 3.78641 14.3571 2.34224 14.4891 0.906429C14.5189 0.580866 14.7744 0.105044 15.0341 0.0215665C15.3108 -0.0660849 15.8516 0.125914 16.0431 0.372172C17.9633 2.82224 19.8707 5.289 21.6887 7.81003C22.0293 8.28585 22.0804 9.04549 22.0634 9.6674C21.9868 12.8604 21.8463 16.0534 21.7228 19.2465C21.7228 19.3216 21.6887 19.3925 21.6121 19.6805H21.6163Z" fill="#902225"/>
<path d="M22.0666 23.3416C22.3646 23.5085 22.7308 23.6171 22.9437 23.855C25.0725 26.2257 27.18 28.609 29.2747 31.009C29.445 31.2052 29.5302 31.5391 29.5217 31.8062C29.4323 34.7905 29.3258 37.7749 29.2109 40.7592C29.1896 41.2517 29.1811 41.7734 29.0108 42.2242C28.8617 42.6166 28.4999 42.9338 28.0954 43.4555C26.4647 41.2934 25.0001 39.3568 23.5483 37.4159C23.0033 36.6855 22.5222 35.905 21.9219 35.2204C21.3854 34.6027 21.4024 33.9265 21.4535 33.217C21.5472 31.969 21.7175 30.721 21.7515 29.4688C21.8026 27.4695 21.7643 25.4703 21.7643 23.4751C21.8665 23.4292 21.9687 23.3833 22.0709 23.3374L22.0666 23.3416Z" fill="#902225"/>
<path d="M23.3125 20.9716C24.2109 20.1994 25.105 19.4189 26.0118 18.6509C27.7063 17.2192 29.4179 15.8126 31.0954 14.3601C31.7979 13.7508 32.5941 13.9261 33.3732 13.9678C33.8671 13.9928 34.3525 14.1807 34.8464 14.2015C37.1029 14.2934 39.3637 14.3434 41.6245 14.4227C42.0204 14.4353 42.4291 14.4687 42.8081 14.5855C43.0593 14.6607 43.4254 14.8777 43.451 15.0655C43.485 15.3452 43.353 15.7709 43.1317 15.9295C40.9858 17.5156 38.8272 19.0808 36.6345 20.6043C35.898 21.1135 35.0933 21.5851 34.2503 21.8689C33.7564 22.0359 33.1263 21.7896 32.5558 21.7604C31.3721 21.702 30.1843 21.6477 28.9964 21.6185C27.4594 21.5809 25.9182 21.5851 24.3812 21.5392C24.0405 21.5267 23.7042 21.3723 23.3678 21.2846C23.3508 21.1844 23.3338 21.0843 23.3168 20.9799L23.3125 20.9716Z" fill="#902225"/>
<path d="M23.3828 22.3093C26.0736 22.3093 28.5217 22.2885 30.9699 22.3177C32.0343 22.3302 33.12 22.3386 34.1588 22.5389C34.9294 22.685 35.7724 22.9855 36.3557 23.478C38.3994 25.181 40.3536 26.9883 42.3206 28.7747C42.7379 29.1545 42.5761 29.6303 42.0141 29.7806C41.7586 29.8474 41.4776 29.8557 41.2137 29.8474C37.4372 29.7639 33.6649 29.6804 29.8884 29.5802C29.65 29.5719 29.352 29.5009 29.1902 29.3465C27.2913 27.5476 25.4052 25.7319 23.9235 23.5657C23.7021 23.2401 23.6042 22.8311 23.3828 22.3052V22.3093Z" fill="#902225"/>
<path d="M13.5143 41.7065C13.4632 41.3976 13.3696 41.0887 13.3653 40.7799C13.344 39.3816 13.3185 37.9792 13.3525 36.5809C13.4121 34.3187 13.5484 32.0523 13.5952 29.79C13.6122 28.8301 14.434 28.4461 14.9534 27.941C16.4606 26.476 18.104 25.1403 19.7389 23.813C20.0199 23.5835 20.5351 23.6336 21.012 23.5417C21.046 23.8423 21.0886 24.0426 21.0843 24.243C21.0418 27.2273 21.012 30.2074 20.9438 33.1918C20.914 34.4815 20.3989 35.5876 19.509 36.5392C18.4021 37.7204 17.3121 38.9141 16.2179 40.0995C15.6942 40.638 15.1492 41.1639 14.6468 41.7232C14.2424 42.1781 13.889 42.2282 13.5186 41.7106L13.5143 41.7065Z" fill="#902225"/>
<path d="M20.2885 22.0828C19.6244 22.6922 18.9687 23.3141 18.2875 23.9068C17.0911 24.9461 15.8819 25.9687 14.6685 26.9871C13.983 27.5631 13.3486 28.2351 12.5695 28.6567C11.9607 28.9864 11.173 29.145 10.4662 29.1325C8.29913 29.0991 6.13626 28.9697 3.96914 28.8403C2.88771 28.7777 1.80202 28.6775 0.733364 28.5106C0.45662 28.4688 0.133042 28.1558 0.013829 27.8887C-0.0585503 27.7342 0.167103 27.3419 0.36721 27.1916C2.27462 25.7683 4.20331 24.3701 6.13201 22.9718C6.65995 22.5878 7.23473 22.2665 7.73287 21.8532C8.51627 21.1979 9.41462 21.1604 10.3598 21.2397C11.85 21.3691 13.3359 21.5402 14.826 21.632C16.5929 21.7405 18.3598 21.7865 20.1268 21.8616C20.1778 21.9325 20.2289 22.0077 20.28 22.0786L20.2885 22.0828Z" fill="#902225"/>
<path d="M22.6558 19.7118C22.6089 19.1733 22.5663 18.9479 22.5706 18.7226C22.5919 15.8426 22.6132 12.9626 22.643 10.0785C22.6558 8.75533 22.9708 7.56995 23.9501 6.55152C25.6063 4.82771 27.1688 3.0246 28.791 1.27157C28.9996 1.04618 29.3317 0.925134 29.6084 0.758179C29.8128 1.10461 30.1704 1.43852 30.196 1.79747C30.2769 2.84929 30.2428 3.90946 30.2258 4.96545C30.1789 7.60752 30.0981 10.2496 30.064 12.8916C30.0555 13.4718 29.8469 13.8642 29.4083 14.2523C27.85 15.6214 26.3556 17.0697 24.7846 18.422C24.2268 18.902 23.5115 19.2026 22.66 19.7076L22.6558 19.7118Z" fill="#902225"/>
<path d="M5.18176 17.8737C5.04977 17.7611 4.91779 17.6442 4.79006 17.5315C4.61975 17.3061 4.47499 17.0515 4.27063 16.8553C3.40634 16.0331 2.53778 15.2108 1.63943 14.422C1.21367 14.0463 1.15406 13.7082 1.53299 13.2992C2.86988 13.2574 4.20677 13.1573 5.54365 13.1823C7.88108 13.224 10.2142 13.3409 12.5474 13.4286C12.871 13.4411 13.1903 13.4745 13.5096 13.4954C13.9013 13.6665 14.3654 13.7583 14.6847 14.0213C15.3915 14.6014 16.0259 15.2692 16.6901 15.8995C16.7922 15.9913 16.8987 16.0873 16.9966 16.1792C17.1669 16.4004 17.3415 16.6216 17.5118 16.847C17.6097 16.943 17.7119 17.039 17.8056 17.1308C17.9205 17.3019 18.0397 17.4689 18.1589 17.64C18.2569 17.736 18.359 17.8278 18.457 17.9238C18.5719 18.095 18.6911 18.2661 18.8104 18.4372C18.9083 18.529 19.0019 18.625 19.0999 18.7169C19.1424 18.767 19.1893 18.817 19.2361 18.8671C19.3 18.984 19.3638 19.1009 19.4277 19.2177C19.5214 19.3096 19.6193 19.4056 19.713 19.5016C19.7726 19.6184 19.8322 19.7353 19.8918 19.8522C19.9131 19.9023 19.9344 19.9523 19.9556 20.0024C20.3729 20.5951 20.1813 20.8789 19.4788 20.8622C16.0301 20.7788 12.5772 20.7913 9.14559 20.5367C8.23872 20.4699 7.39145 19.585 6.53142 19.0508C6.24616 18.8755 5.99922 18.6334 5.73525 18.4205C5.55643 18.2411 5.37335 18.0616 5.19027 17.8821L5.18176 17.8737Z" fill="#902225"/>
<path d="M17.5074 16.8442C17.3328 16.623 17.1625 16.3976 16.9922 16.1764C17.1667 16.3976 17.3371 16.623 17.5074 16.8442Z" fill="#902225"/>
<path d="M18.1581 17.6343C18.0389 17.4632 17.9239 17.2921 17.8047 17.1251C17.9239 17.2963 18.0389 17.4674 18.1581 17.6343Z" fill="#902225"/>
<path d="M19.7071 19.4923C19.6092 19.3963 19.5155 19.3003 19.4219 19.2085C19.5198 19.3045 19.6135 19.3963 19.7071 19.4923Z" fill="#902225"/>
<path d="M19.23 18.8584C19.1832 18.8083 19.1363 18.7582 19.0938 18.7081C19.1406 18.7582 19.1832 18.8083 19.23 18.8584Z" fill="#902225"/>
<path d="M51.4531 5.72778H80.6406V37.7278H74.4028V11.2135H57.6444V37.7278H51.4531V5.72778Z" fill="#424242"/>
<path d="M86.6846 5.72778H92.8759V28.4478L110.565 5.72778H116.803V37.7278H110.565V15.0078L92.8759 37.7278H86.6846V5.72778Z" fill="#424242"/>
<path d="M129.062 26.4364V37.7278H122.871V5.72778H141.258C142.748 5.72778 144.114 6.01731 145.355 6.59635C146.596 7.14493 147.667 7.89159 148.567 8.83636C149.467 9.78112 150.165 10.8935 150.662 12.1735C151.189 13.423 151.453 14.7335 151.453 16.1049C151.453 17.4764 151.189 18.7868 150.662 20.0364C150.165 21.2859 149.467 22.383 148.567 23.3278C147.667 24.2725 146.596 25.0344 145.355 25.6135C144.114 26.1621 142.748 26.4364 141.258 26.4364H129.062ZM140.327 21.1335C141.134 21.1335 141.848 20.9964 142.469 20.7221C143.089 20.4173 143.617 20.0211 144.052 19.5335C144.517 19.0459 144.858 18.5125 145.076 17.9335C145.324 17.324 145.448 16.7145 145.448 16.1049C145.448 15.4954 145.324 14.8859 145.076 14.2764C144.858 13.6668 144.517 13.1335 144.052 12.6764C143.617 12.1887 143.089 11.8078 142.469 11.5335C141.848 11.2287 141.134 11.0764 140.327 11.0764H129.062V21.1335H140.327Z" fill="#424242"/>
</svg>
