<svg width="752" height="216" viewBox="0 0 752 216" fill="none" xmlns="http://www.w3.org/2000/svg">
<path d="M107.351 97.7163C105.639 96.5972 104.159 96.017 103.208 94.96C92.7012 83.3962 82.1949 71.8323 71.8999 60.0611C70.5893 58.569 70.0185 55.9993 70.0396 53.9269C70.0819 44.6011 70.3567 35.2754 70.695 25.9704C70.9698 18.8 71.308 11.6295 71.9633 4.50053C72.1113 2.88407 73.3797 0.521557 74.6692 0.107081C76.0433 -0.32812 78.728 0.625176 79.6793 1.84788C89.2132 14.0128 98.6837 26.2606 107.71 38.7777C109.401 41.1403 109.655 44.912 109.571 47.9999C109.19 63.8536 108.492 79.7073 107.879 95.561C107.879 95.9341 107.71 96.2864 107.33 97.7163H107.351Z" fill="#902225"/>
<path d="M109.584 115.896C111.064 116.725 112.882 117.264 113.939 118.445C124.509 130.216 134.973 142.049 145.374 153.965C146.219 154.939 146.642 156.597 146.6 157.924C146.156 172.741 145.627 187.559 145.056 202.376C144.951 204.822 144.908 207.412 144.063 209.65C143.323 211.598 141.526 213.173 139.518 215.764C131.421 205.029 124.149 195.413 116.941 185.776C114.235 182.15 111.846 178.274 108.866 174.876C106.202 171.809 106.287 168.451 106.54 164.928C107.005 158.732 107.851 152.535 108.02 146.318C108.274 136.392 108.083 126.465 108.083 116.559C108.591 116.331 109.098 116.103 109.605 115.875L109.584 115.896Z" fill="#902225"/>
<path d="M115.75 104.126C120.21 100.292 124.65 96.4167 129.152 92.6036C137.566 85.4953 146.064 78.5114 154.393 71.2995C157.881 68.2738 161.834 69.1442 165.703 69.3514C168.155 69.4758 170.565 70.4083 173.017 70.512C184.221 70.9679 195.446 71.2166 206.671 71.6103C208.637 71.6725 210.667 71.8383 212.548 72.4186C213.795 72.7916 215.613 73.8692 215.74 74.8018C215.909 76.1903 215.254 78.3041 214.155 79.0916C203.5 86.9667 192.782 94.7381 181.896 102.302C178.238 104.831 174.243 107.172 170.057 108.582C167.605 109.411 164.477 108.188 161.644 108.043C155.767 107.753 149.869 107.483 143.971 107.338C136.34 107.152 128.687 107.172 121.056 106.944C119.365 106.882 117.695 106.116 116.025 105.68C115.94 105.183 115.856 104.686 115.771 104.167L115.75 104.126Z" fill="#902225"/>
<path d="M116.117 110.772C129.477 110.772 141.633 110.669 153.788 110.814C159.073 110.876 164.463 110.917 169.621 111.912C173.448 112.637 177.633 114.129 180.529 116.575C190.676 125.03 200.379 134.004 210.146 142.873C212.218 144.759 211.414 147.122 208.624 147.868C207.355 148.199 205.96 148.241 204.65 148.199C185.899 147.785 167.169 147.37 148.418 146.873C147.235 146.832 145.755 146.479 144.952 145.713C135.523 136.781 126.158 127.766 118.802 117.01C117.703 115.394 117.216 113.363 116.117 110.751V110.772Z" fill="#902225"/>
<path d="M67.1123 207.075C66.8586 205.541 66.3935 204.008 66.3724 202.474C66.2667 195.532 66.1399 188.568 66.309 181.626C66.6049 170.394 67.2814 159.141 67.5139 147.908C67.5985 143.142 71.6784 141.235 74.2574 138.728C81.7408 131.454 89.9007 124.822 98.0183 118.232C99.4135 117.092 101.971 117.341 104.339 116.885C104.508 118.377 104.72 119.372 104.698 120.366C104.487 135.184 104.339 149.981 104.001 164.798C103.853 171.202 101.295 176.694 96.8767 181.419C91.3805 187.284 85.9687 193.211 80.5359 199.096C77.9357 201.77 75.2299 204.381 72.7354 207.158C70.7271 209.417 68.9726 209.665 67.1334 207.096L67.1123 207.075Z" fill="#902225"/>
<path d="M100.735 109.64C97.4374 112.666 94.1819 115.754 90.7995 118.697C84.8593 123.857 78.8557 128.934 72.8309 133.991C69.4275 136.851 66.2777 140.187 62.4092 142.28C59.3862 143.917 55.4754 144.705 51.9662 144.643C41.2062 144.477 30.4673 143.835 19.7073 143.192C14.3379 142.881 8.94727 142.384 3.64124 141.555C2.26717 141.348 0.66057 139.793 0.0686625 138.467C-0.29071 137.7 0.829686 135.752 1.82324 135.006C11.2938 127.939 20.87 120.997 30.4462 114.054C33.0675 112.148 35.9213 110.552 38.3946 108.5C42.2843 105.247 46.7448 105.06 51.4377 105.454C58.8366 106.096 66.2143 106.946 73.6131 107.402C82.386 107.941 91.1589 108.169 99.9318 108.542C100.186 108.894 100.439 109.267 100.693 109.62L100.735 109.64Z" fill="#902225"/>
<path d="M112.495 97.8706C112.262 95.1972 112.051 94.0781 112.072 92.959C112.177 78.6596 112.283 64.3601 112.431 50.04C112.495 43.4705 114.059 37.585 118.921 32.5283C127.144 23.9694 134.902 15.0167 142.957 6.3127C143.992 5.19362 145.641 4.59263 147.015 3.76367C148.03 5.48375 149.806 7.14166 149.933 8.9239C150.334 14.1463 150.165 19.4102 150.081 24.6533C149.848 37.7715 149.446 50.8897 149.277 64.0078C149.235 66.8885 148.199 68.8365 146.022 70.7638C138.285 77.5612 130.865 84.7524 123.064 91.4669C120.295 93.8502 116.744 95.3423 112.516 97.8499L112.495 97.8706Z" fill="#902225"/>
<path d="M25.7493 88.743C25.094 88.1834 24.4387 87.6031 23.8045 87.0436C22.9589 85.9245 22.2401 84.6604 21.2255 83.6863C16.9341 79.6037 12.6217 75.5211 8.16122 71.6043C6.04727 69.7392 5.75131 68.0606 7.63273 66.0296C14.2705 65.8224 20.9084 65.325 27.5462 65.4494C39.1518 65.6566 50.7362 66.2369 62.3207 66.6721C63.9273 66.7342 65.5128 66.9 67.0982 67.0037C69.0431 67.8533 71.3473 68.3093 72.9328 69.6149C76.4419 72.4955 79.5917 75.8113 82.8895 78.9406C83.3968 79.3965 83.9253 79.8732 84.4115 80.3291C85.2571 81.4274 86.1238 82.5258 86.9694 83.6449C87.4556 84.1215 87.963 84.5982 88.428 85.0541C88.9988 85.9038 89.5907 86.7327 90.1826 87.5824C90.6688 88.0591 91.1762 88.515 91.6624 88.9916C92.2331 89.8413 92.8251 90.691 93.417 91.5407C93.9032 91.9966 94.3682 92.4732 94.8545 92.9292C95.0658 93.1779 95.2984 93.4265 95.5309 93.6752C95.848 94.2555 96.1651 94.8358 96.4822 95.416C96.9473 95.872 97.4335 96.3486 97.8985 96.8253C98.1945 97.4055 98.4905 97.9858 98.7864 98.5661C98.8921 98.8147 98.9978 99.0634 99.1035 99.3121C101.175 102.255 100.224 103.664 96.7359 103.581C79.6128 103.167 62.4687 103.229 45.4302 101.965C40.9275 101.633 36.7207 97.2397 32.4505 94.5871C31.0342 93.7167 29.8081 92.5147 28.4975 91.4578C27.6096 90.5667 26.7006 89.6755 25.7916 88.7844L25.7493 88.743Z" fill="#902225"/>
<path d="M86.9485 83.6303C86.0818 82.5319 85.2362 81.4128 84.3906 80.3145C85.2573 81.4128 86.1029 82.5319 86.9485 83.6303Z" fill="#902225"/>
<path d="M90.1843 87.5557C89.5924 86.706 89.0216 85.8563 88.4297 85.0273C89.0216 85.877 89.5924 86.7267 90.1843 87.5557Z" fill="#902225"/>
<path d="M97.8617 96.7842C97.3754 96.3076 96.9104 95.8309 96.4453 95.375C96.9315 95.8516 97.3966 96.3076 97.8617 96.7842Z" fill="#902225"/>
<path d="M95.489 93.6386C95.2564 93.39 95.0239 93.1413 94.8125 92.8926C95.045 93.1413 95.2564 93.39 95.489 93.6386Z" fill="#902225"/>
<path d="M255.484 28.3457H400.233V187.417H369.298V55.6151H286.189V187.417H255.484V28.3457Z" fill="white"/>
<path d="M430.207 28.3457H460.912V141.286L548.638 28.3457H579.574V187.417H548.638V74.4764L460.912 187.417H430.207V28.3457Z" fill="white"/>
<path d="M640.369 131.288V187.417H609.665V28.3457H700.854C708.242 28.3457 715.014 29.7849 721.17 32.6634C727.326 35.3903 732.636 39.102 737.099 43.7983C741.563 48.4947 745.025 54.0244 747.488 60.3872C750.104 66.5986 751.413 73.1129 751.413 79.9303C751.413 86.7476 750.104 93.262 747.488 99.4733C745.025 105.685 741.563 111.139 737.099 115.835C732.636 120.531 727.326 124.319 721.17 127.197C715.014 129.924 708.242 131.288 700.854 131.288H640.369ZM696.237 104.927C700.239 104.927 703.779 104.245 706.857 102.882C709.935 101.367 712.551 99.3976 714.706 96.9736C717.015 94.5497 718.707 91.8985 719.785 89.02C721.016 85.9901 721.632 82.9602 721.632 79.9303C721.632 76.9003 721.016 73.8704 719.785 70.8405C718.707 67.8105 717.015 65.1593 714.706 62.8869C712.551 60.463 709.935 58.5693 706.857 57.2058C703.779 55.6908 700.239 54.9333 696.237 54.9333H640.369V104.927H696.237Z" fill="white"/>
</svg>
