<svg width="425" height="392" viewBox="0 0 425 392" fill="none" xmlns="http://www.w3.org/2000/svg">
<g clip-path="url(#clip0_3157_14714)">
<path d="M376.276 140.055L377.221 139.079L381.144 139.878L388.826 137.258L388.723 130.332L391.824 127.558L393.159 127.979L393.796 129.378L400.697 125.338L402.649 121.941L407.373 121.164L412.323 119.122L414.233 115.215L415.095 109.865L418.936 109.888L426.741 103.006L424.42 98.8551L426.31 97.168L429.021 96.8794L431.075 97.9227L431.157 100.076L437.586 97.5898L440.195 99.8096L444.2 101.652L448.595 100.365L449.992 102.052L453.073 100.476L455.763 103.694L461.083 107.69L463.158 110.176L466.177 110.576L471.456 117.502L471.723 120.765L474.619 123.717L477.186 122.075L479.158 122.74L479.487 123.961L478.234 125.826L481.171 128.778L479.199 131.242L481.13 132.219L484.745 133.351L489.777 131.62L491.605 133.396L493.659 132.819L496.329 135.926L503.805 135.793L507.256 136.614L509.289 136.126L511.261 137.547L512.206 138.834L511.528 139.922L508.365 143.141L507.913 145.316L505.263 146.249L502.963 149.157L500.991 149.734L496.657 153.774L481.89 153.152L479.137 156.26L479.692 156.97L477.145 158.413L474.187 157.281L467.512 157.459L466.074 155.261L464.945 154.64L454.716 156.482L453.915 154.506L453.792 150.777L454.531 146.16L451.861 145.139L451.738 143.296L449.889 142.963L448.39 141.454L447.178 146.493L443.604 155.927L442.885 163.275L442.824 164.895L444.159 166.183L446.295 171.577L441.797 175.95L441.735 176.683L442.721 178.325L444.487 179.058L445.247 180.789L447.158 180.678L447.568 177.637L448.226 177.127L450.978 177.304L452.416 181.744L458.31 188.847L459.378 193.043L459.214 194.286L458.351 194.819L458.536 195.707L457.591 196.439L456.749 196.217L455.763 197.86L453.525 197.372L452.744 197.771L451.265 196.839L452.272 201.056L449.807 203.41L448.657 203.054L447.63 204.031L447.979 204.786L449.437 205.052L450.505 207.538L447.137 209.47L448.493 210.735L449.088 213.732L447.979 218.216L446.932 219.326L444.097 219.17L443.522 220.058L443.994 221.013L447.671 220.569L447.938 221.035L444.138 223.255L444.98 226.784L446.849 227.228L446.911 227.894L445.987 230.381L444.837 231.246L443.789 231.024L442.659 233.244L443.214 235.93L442.31 235.908L441.365 238.061L438.736 239.881L437.75 239.859L436.292 238.372L434.669 237.928L433.499 235.508L430.644 234.043L427.994 234.11L426.289 233.4L423.722 234.265L422.079 232.156L420.066 231.557L419.635 233.622L420.538 233.71L420.888 235.42L417.355 233.599L415.753 236.374L415.65 233.178L409.16 226.296L408.4 223.077L404.23 224.209L402.69 222.323L400.225 223.21L397.144 222.411L395.07 216.329L391.681 216.262L390.797 214.664L389.195 215.818L387.757 215.574L386.607 213.443L383.67 216.063L380.404 212.333L376.625 214.176L371.942 208.56L371.223 206.517L364.014 205.563L363.562 204.653L364.117 203.365L361.837 199.125L362.165 195.462L361.426 192.665L364.959 191.999L365.986 188.736L365.657 188.093L363.685 188.426L363.254 187.604L360.07 172.465L362.063 168.802L360.296 166.538L367.957 161.921L369.847 163.386L371.655 161.943L372.599 160.145L374.16 159.59L374.941 158.147L379.624 155.283L377.18 149.023L376.276 140.055Z" stroke="#BCBCBC" stroke-width="2" stroke-linejoin="round"/>
<path d="M206.334 204.757L209.505 199.402L210.827 199.869L211.538 201.891L213.042 202.313L214.485 203.823L217.758 202.646L220.258 204.312L221.6 203.846L223.409 201.957L226.6 200.869L227.596 201.091L230.279 206.578L231.153 207.156L233.491 206.401L235.523 204.512L236.885 204.423L242.272 212.132H243.552L247.191 210.022L247.455 208.822L250.26 205.623L250.565 207.134L252.008 209.022L251.439 210.466L252.353 211.51L254.549 210.444L255.89 210.533L258.045 212.244L258.96 212.421L260.708 211.199L262.761 211.51L263.37 212.288L266.948 210.111L270.668 212.777L272.233 213.088L273.778 210.977L274.936 210.244L275.851 210.8L278.005 210.222L278.696 211.333L278.595 212.132L276.42 213.954L276.806 216.62L275.302 220.042L278.046 221.952L277.619 223.108L278.026 225.618L279.408 225.085L280.77 226.418L282.843 226.507L280.628 230.039L276.135 230.75L275.566 231.639L275.952 233.172L274.123 235.105L273.249 235.505L271.013 234.26L269.468 235.527L269.55 236.549L268.045 238.282L270.241 239.303L271.094 241.57L269.306 243.502L267.659 244.236L266.48 241.836L265.688 242.192L264.895 241.459L262.639 237.704L261.236 239.237L260.891 241.436L258.858 244.791L258.228 244.547L259.366 242.458L258.716 239.326L260.037 236.993L259.529 235.682L252.211 233.949L248.085 236.526L246.052 241.059L248.227 243.858L246.784 247.168L254.752 254.055L255.28 256.077L257.476 258.965L258.472 259.299L259.691 258.965L262.171 256.255L264.793 255.5L267.944 257.343L269.204 257.255L270.342 254.855L274.733 253.078L275.973 253.833L277.009 253.567L279.977 250.345L281.237 247.39L282.477 246.879L283.555 245.213L284.449 246.879L286.685 246.48L286.055 248.257L286.847 250.079L285.079 254.9L283.311 256.655L284.042 258.388L282.823 260.321L284.652 261.876L283.92 266.186L281.745 265.275L277.802 265.741L276.176 270.14L274.692 271.584L272.599 272.051L271.968 278.938L270.668 281.449L271.501 282.959L271.603 285.492L271.501 289.358L270.688 290.091L271.806 291.513L272.111 294.357L272.924 295.778L270.993 298.289L270.627 304.821L270.037 306.22L271.481 308.775L270.749 310.286L271.44 311.53L271.216 312.286L272.294 315.129L271.399 316.507L270.2 316.107L269.285 316.818L268.737 320.172L270.017 321.661L268.391 328.17L267.212 329.548L265.2 329.815L262.923 331.236L262.09 331.081L260.647 329.037L257.496 328.059L256.175 328.282L255.545 327.482L254.65 327.704L252.923 331.703L250.544 330.97L250.341 333.169L247.861 334.924L245.564 331.658L243.572 330.281L242.78 330.814L243.511 333.436L242.719 334.591L241.398 334.347L241.967 331.947L239.406 327.437L240.747 325.238L239.141 321.483L236.438 318.484L235.808 318.506L234.71 320.506L233.287 318.884L235.686 316.307L236.255 314.507L235.95 311.863L234.771 310.153L235.605 308.398L235.157 307.909L234.121 308.753L230.726 306.198L230.096 309.02L226.803 313.907L222.718 312.574L221.681 307.864L220.156 306.465L219.059 306.776L218.408 305.998L218.917 304.71L220.116 305.043L220.848 304.199L220.278 303.71L219.913 300.999L217.433 301.844L216.294 300.999L216.233 299.355L214.567 296.556L213.55 291.024L212.859 290.402L209.546 291.18L207.859 288.025L205.196 286.692L203.57 286.892L201.192 284.692L197.777 278.916L195.114 275.872L193.041 271.051L191.598 269.252L192.106 267.43L191.313 263.542L192.106 258.499L192.695 255.966L195.094 251.589L194.606 248.835L195.846 246.368L195.236 245.369L193.366 245.458L191.943 243.058L189.748 241.059L188 240.459L188.589 239.015L192.086 237.482L193.671 237.526L195.826 234.483L199.058 232.55L199.83 229.861L200.745 228.817L200.602 226.995L203.387 224.218L203.306 221.952L201.476 220.908L201.802 220.397L200.724 219.664L199.667 217.065L197.513 215.954L198.285 214.354L201.944 211.577L203.387 208.222L206.111 206.645L206.334 204.757Z" stroke="white" stroke-width="2" stroke-linejoin="round"/>
<path d="M274.68 211.487L274.989 209.183L275.833 209.426L276.905 208.54L276.575 205.793L278.223 204.862L279.892 205.882L283.497 206.28L284.898 208.717L288.483 207.787L290.873 208.695L295.076 207.477L297.527 209.072L299.258 208.518L300.494 209.249L305.851 208.651L304.82 205.926L306.798 204.242L308.57 205.106L310.259 204.486L311.702 206.192L314.256 206.059L314.442 207.167L316.049 207.787L316.852 209.803L319.015 210.8L321.529 214.433L322.106 217.424L323.96 217.535L323.301 218.909L326.556 222.299L326.02 223.163L326.803 226.464L325.649 227.948L327.071 228.369L326.618 230.208L325.278 231.072L323.836 231.648L320.931 231.271L321.652 234.24L319.386 235.237L322.291 240.665L321.364 243.279L320.602 243.302L319.572 242.083L317.985 242.548L317.903 244.121L319.778 248.885L319.201 250.325L321.282 252.585L325.69 250.635L326.947 251.477L326.412 252.629L329.11 252.983L333.19 251.41L336.342 251.632L337.578 256.728L335.085 258.433L335.579 259.851L334.941 261.181L337.908 263.994L338.711 264.061L338.917 265.833L335.806 265.966L335.724 267.739L335.106 268.27L330.614 268.049L330.367 268.979L327.318 271.571L326.679 273.876L325.072 272.879L324.66 271.284L325.773 270.464L324.763 269.666L321.591 270.287L319.633 269.666L318.603 270.397L319.18 272.391L318.294 272.635L316.708 272.081L317.202 270.951L316.337 270.907L316.399 270.287L315.472 271.594L314.668 270.375L313.515 270.84L312.835 272.413L312.361 271.306L311.104 270.641L310.589 268.913L309.6 268.758L308.302 269.179L307.561 270.242V273.388L306.551 273.233L306.098 272.214L304.182 272.458L303.626 273.942L305.789 274.385L307.004 276.645L304.47 279.281L304.388 280.81L303.77 280.057L302.575 280.123L302.534 281.453L309.023 283.004L311.207 282.139L312.464 283.912L310.342 285.684L309.353 284.754L307.581 284.488L307.252 286.238L306.118 287.59L306.469 289.982L309.621 290.758L311.434 292.176L312.958 292.109L313.638 291.157L315.575 293.572L320.19 294.746L320.581 297.67L318.665 299.088L316.729 297.515L314.339 297.892L313.247 298.8L310.568 296.895L309.27 298.158L307.272 296.983L305.5 298.601L304.141 298.335L304.862 300.129L301.627 303.785L299.773 304.339L299.567 306.887L301.442 307.817L301.545 310.454L303.399 310.808L304.841 315.128L303.255 316.79L300.741 317.876L299.67 319.493L296.847 319.582L293.015 323.547L290.729 323.924L288.771 322.462L290.358 318.673L292.459 316.701L291.697 312.78L288.565 313.157L286.588 311.694L286.052 312.182L284.301 311.251L282.488 311.872L282.014 310.83L281.355 310.941L278.47 312.248L277.996 313.644L278.511 316.059L275.627 314.22L274.432 311.717L272.31 311.761L271.61 310.52L272.351 309.014L270.889 306.466L271.486 305.07L271.857 298.556L273.814 296.053L272.99 294.635L272.681 291.799L271.548 290.381L272.372 289.65L272.475 285.795L272.372 283.269L271.527 281.763L272.846 279.259L273.485 272.391L275.607 271.926L277.111 270.486L278.759 266.099L282.756 265.634L284.96 266.542L285.702 262.244L283.847 260.693L285.084 258.766L284.342 257.038L286.134 255.287L287.927 250.48L287.123 248.663L287.762 246.891L285.496 247.29L284.589 245.628L283.497 247.29L282.24 247.799L280.963 250.746L277.955 253.958L276.905 254.224L275.648 253.471L271.198 255.243L270.044 257.636L268.767 257.724L265.573 255.886L262.916 256.639L260.402 259.342L259.166 259.674L258.157 259.342L255.932 256.462L255.396 254.446L247.32 247.578L248.783 244.276L246.578 241.485L248.638 236.965L252.821 234.395L260.237 236.123L260.752 237.43L259.413 239.757L260.073 242.881L258.919 244.963L259.558 245.207L261.618 241.861L261.968 239.668L263.389 238.139L265.676 241.884L266.48 242.615L267.283 242.26L268.478 244.653L270.147 243.922L271.96 241.994L271.095 239.735L268.87 238.716L270.394 236.987L270.312 235.968L271.878 234.705L274.144 235.946L275.03 235.547L276.884 233.62L276.493 232.091L277.069 231.205L281.622 230.496L283.868 226.973L281.767 226.885L280.386 225.555L278.985 226.087L278.573 223.584L279.006 222.431L276.225 220.526L277.749 217.114L277.358 214.456L279.562 212.639L279.665 211.841L278.965 210.734L276.781 211.31L275.854 210.756L274.68 211.487Z" stroke="white" stroke-width="2" stroke-linejoin="round"/>
<path d="M84.3914 215.033L89.9079 210.974L91.6521 211.988L92.6662 211.785L94.1062 209.824L99.4199 205.833L101.854 205.562L102.726 206.396L103.963 210.049L105.606 211.109L109.986 211.921L111.71 216.904L117.572 220.377L117.633 222.023L115.564 222.496L114.489 224.435L112.055 225.45L112.136 226.961L113.739 227.885L111.548 229.847L109.135 233.816L107.553 234.334L107.269 235.191L107.046 237.514L107.958 237.874L109.013 236.431L109.885 236.544L109.763 234.921L110.879 235.326L112.461 239.814L110.534 241.009L110.25 242.587L111.102 243.85L113.008 242.97L112.988 243.827L108.425 244.707L109.155 247.616L107.127 247.503L107.37 249.081L105.038 248.743L103.03 247.029L103.212 247.976L102.239 248.901L103.314 250.727L100.779 251.9L99.1562 253.433L97.9393 252.283L96.6008 252.441L94.8566 254.403L93.8019 253.05L92.22 253.14L89.1575 250.75L88.2449 247.21L86.1964 245.27L87.1294 243.602L86.6021 242.226L85.8111 241.82L84.7362 244.459L84.2089 244.504L83.8235 242.655L82.992 239.047L83.8641 237.491L85.7502 236.228L86.3384 233.68L88.3057 232.192L87.9203 230.478L84.797 228.99L81.8562 225.878L81.8359 224.007L83.9046 220.918L83.5396 217.039L84.3914 215.033Z" stroke="white" stroke-width="2" stroke-linejoin="round"/>
<path d="M318.467 210.673L318.632 207.192L320.388 205.936L323.92 199.921L325.573 198.621L326.275 198.665L327.618 201.044L329.064 199.172L332.018 197.321L334.641 198.775L337.264 198.577L337.781 199.326L338.545 198.026L340.156 197.255L344.473 200.824L349.307 201.441L350.898 200.846L350.546 198.312L352.736 196.263L352.612 193.708L353.211 193.113L354.223 193.333L356.289 191.042L360.172 191.108L361.969 193.024L362.713 195.801L362.383 199.436L364.675 203.644L364.118 204.922L364.572 205.826L371.823 206.773L372.546 208.8L377.255 214.374L381.056 212.546L384.34 216.247L387.294 213.647L388.451 215.762L389.897 216.005L391.508 214.859L392.396 216.445L395.805 216.512L397.891 222.549L400.989 223.342L403.468 222.46L405.017 224.333L409.211 223.21L409.975 226.404L416.502 233.234L416.606 236.407L416.027 238.368L409.5 238.412L409.872 240.065L411.132 241.673L410.12 242.951L409.851 244.714L407.207 245.132L404.914 244.207L403.819 245.154L403.365 246.785L401.506 247.6L400.246 247.997L396.714 247.225L396.218 248.481L393.388 249.054L392.768 249.759L389.071 249.98L388.141 251.103L382.357 252.073L377.544 254.012L376.553 253.659L376.45 251.434L374.88 251.962L373.62 254.408L369.716 253.13L369.096 254.056L369.571 255.245L367.733 255.025L365.419 256.545L365.729 261.503L364.097 261.569L362.114 259.41L358.809 261.062L358.623 259.806L357.136 260.005L355.463 261.128L354.678 260.93L354.058 261.855L348.791 262.164L348.088 263.133L347.572 262.34L347.056 263.309L344.825 263.221L340.466 265.182L338.421 265.403L338.215 263.64L337.409 263.574L334.434 260.776L335.075 259.454L334.579 258.044L337.078 256.347L335.839 251.279L332.679 251.059L328.589 252.624L325.883 252.271L326.42 251.125L325.16 250.288L320.739 252.227L318.653 249.98L319.231 248.547L317.352 243.81L317.434 242.246L319.025 241.783L320.058 242.995L320.822 242.973L321.751 240.373L318.839 234.975L321.111 233.984L320.388 231.031L323.301 231.406L324.747 230.833L326.089 229.974L326.544 228.145L325.118 227.726L326.275 226.25L325.49 222.967L326.027 222.108L322.764 218.737L323.425 217.371L321.565 217.261L320.987 214.286L318.467 210.673Z" stroke="white" stroke-width="2" stroke-linejoin="round"/>
<path d="M98.4934 67.3852L99.4625 63.393L100.37 62.144L100.205 60.8506L103.154 61.3635L104.576 60.3599L110.659 62.144L111.443 62.947L111.628 66.493L117.134 67.5413L118.103 68.3888L119.856 76.0608L119.691 80.432L122.165 82.8184L122.619 84.3349L119.196 87.9256L118.474 89.7321L119.134 93.9919L119.093 104.073L127.527 105.612L127.114 111.098L127.774 111.455L128.764 110.406L131.486 111.544L131.733 113.373L135.135 113.863L134.434 118.636L135.672 119.417L137.053 119.729L138.847 118.525L139.486 114.978L139.012 113.997L139.259 111.299L138.682 110.451L139.156 105.656L142.291 104.652L141.425 103.024L141.61 101.865L142.868 101.352L144.786 101.798L146.023 100.326L148.332 99.2776L152.25 98.3186L154.271 98.497L157.941 92.3639L161.117 92.9214L162.952 96.9135L164.251 96.8244L170.705 84.8033L172.54 84.2458L175.592 86.699L178.211 88.3048L191.263 90.6242L191.593 88.3717L192.727 87.8364L195.222 91.7617L196.027 94.9509L194.377 104.452L192.521 104.742L192.006 109.224L189.243 115.38L191.882 121.736L193.676 121.758L196.006 123.208L197.47 122.807L198.357 123.632L197.14 126.442L197.8 130.969L199.388 133.222L197.264 134.493L196.851 135.876L197.491 137.058L197.037 138.039L197.614 142.366L196.047 142.589L195.305 143.526L194.315 143.102L193.14 143.838L192.624 143.146L192.006 143.392L191.841 144.551L189.573 144.373L187.84 140.738L184.871 141.92L184.541 144.239L183.82 145.042L177.778 144.529L174.169 142.856L172.85 142.901L170.355 144.172L168.354 146.737L166.478 151.978L168.849 154.431L168.952 156.372L170.623 157.286L169.695 159.316L170.251 164.847L169.427 167.456L167.798 169.24L167.571 170.601L165.571 171.894L165.633 173.121L164.313 173.634L163.199 173.054L160.972 173.344L159.776 174.281L158.251 178.273L162.601 188.844L164.437 190.918L164.23 192.345L162.663 193.795L161.962 196.494L159.447 196.382L158.931 197.921L159.385 199.861L158.849 201.2L161.096 203.564L161.467 205.192L163.921 207.02L162.478 208.849L163.962 210.054L162.89 211.682L162.395 212.997L161.364 213.042L159.694 211.615L158.601 211.994L157.055 210.812L155.467 208.247L156.024 205.638L155.508 203.809L154.58 202.716L153.508 203.34L153.92 205.236L151.487 204.456L150.106 201.512L150.353 200.241L147.404 195.557L146.188 196.94L145.054 196.271L144.188 197.185L142.868 196.605L143.858 192.881L143.239 190.896L141.961 190.026L141.074 190.405L138.167 189.491L138.765 187.305L138.146 186.19L138.352 185.164L136.269 183.915L133.939 184.517L132.496 185.744L131.053 185.053L129.795 181.328L129.754 179.611L130.681 177.938L130.083 176.912L127.795 177.626L127.444 179.232L128.186 180.704L126.99 181.796L126.702 183.737L126.104 184.094L124.475 183.402L125.032 181.796L124.083 181.083L122.165 182.064L120.351 181.239L118.804 183.112L117.876 181.863H116.412L115.897 183.692L114.783 184.138L114.721 185.632L113.196 186.19L110.432 186.391L108.68 184.607L105.216 189.045L104.968 190.851L103.174 190.182L99.7512 191.342L100.102 190.004L99.2563 188.799L93.8951 188.13L94.4312 183.291L93.627 181.908L95.0498 180.614L93.3796 177.604L93.1115 174.459L94.2044 171.939L95.0086 171.381L97.8129 171.961L101.153 169.619L103.504 171.337L104.411 170.891L105.525 168.526L106.329 162.126L108.948 158.892L103.05 156.729L98.7202 156.193L90.4309 155.613L88.6576 156.394L88.4307 154.833L87.5234 153.294L88.3895 151.309L89.2762 151.22L89.8329 150.105L89.1318 147.763L90.2041 146.291L89.0699 145.555L91.8124 144.172L91.3794 141.897L92.7403 138.731L93.1115 139.199L94.9467 138.842L95.8127 137.972L96.4314 138.418L98.2047 137.994L97.8129 135.742L99.8131 133.623L100.988 133.98L102.782 132.887L101.896 131.393L102.597 130.702L101.793 129.453L102.267 129.118L106.597 129.587L106.02 125.795L104.576 123.431L104.226 121.513L103.731 122.65L102.287 121.915L101.339 119.773L101.875 119.372L101.236 118.257L101.566 116.049L98.4727 115.491L99.2563 107.663L99.4831 104.363L99.0295 103.203L95.7509 101.753L97.483 96.356L98.0603 90.2896L95.1323 93.4344L93.4208 93.9249L88.8225 91.4494L87.5234 87.5911L92.3898 86.7213L93.7507 87.1004L94.4931 86.409L95.7921 79.1608L98.4521 76.1277L97.4624 70.6859L98.4934 67.3852Z" stroke="white" stroke-width="2" stroke-linejoin="round"/>
<path d="M93.1919 187.724L98.5347 188.392L99.3773 189.595L99.0279 190.931L102.439 189.773L104.227 190.441L104.474 188.637L107.926 184.205L109.673 185.987L112.426 185.786L113.947 185.23L114.008 183.738L115.118 183.292L115.632 181.466H117.091L118.016 182.713L119.557 180.842L121.365 181.666L123.276 180.687L124.222 181.399L123.667 183.003L125.29 183.693L125.886 183.337L126.174 181.399L127.366 180.308L126.626 178.838L126.975 177.235L129.256 176.522L129.852 177.546L128.927 179.217L128.968 180.931L130.222 184.651L131.66 185.341L133.099 184.116L135.421 183.515L137.496 184.762L137.291 185.786L137.907 186.9L137.311 189.082L140.209 189.995L141.093 189.617L142.367 190.485L142.983 192.467L141.997 196.187L142.264 197.478L143.517 197.656L144.072 198.659L143.97 199.327L142.284 200.039L141.236 202.044L140.332 201.019L138.503 202.378L137.887 201.353L138.586 200.195L137.394 199.438L135.236 200.307L134.393 202.333L132.708 202.088L131.722 204.271L127.961 203.313L125.865 204.716L124.776 206.809L125.146 208.012L127.427 208.057L127.263 208.947L126.092 210.751L124.612 210.707L123.441 213.201L121.612 212.6L120.728 215.651L117.605 218.256L117.851 220.083L111.912 216.653L110.166 211.731L105.727 210.93L104.063 209.883L102.809 206.275L101.925 205.451L99.4595 205.718L94.0755 209.66L92.6165 211.598L91.589 211.798L89.8218 210.796L84.2323 214.805L83.2871 211.976L83.4515 210.395L80.1019 207.723L81.5609 205.674L81.4171 203.825L78.8279 201.977L76.9373 202.4L76.5469 201.153L77.1428 198.592L78.5196 196.877L80.6568 197.011L80.4101 191.911L81.5609 190.24L85.979 189.216L87.3559 187.323L90.4383 188.414L91.589 188.08L92.3699 186.61L93.1919 187.724Z" stroke="white" stroke-width="2" stroke-linejoin="round"/>
<path d="M30.3065 248.082L32.4801 249.968L34.4911 248.747L35.0599 248.769L35.7912 250.345L36.8475 250.367L38.6148 248.925L39.9961 249.946L40.6259 247.482L42.7588 246.329L43.0026 245.308L44.0995 245.108L45.7246 246.018L47.3497 245.463L47.2481 248.126L52.3469 249.302L52.2656 250.722L52.7938 251.21L54.5204 250.855L54.9674 251.388L54.683 252.897L56.4909 254.738L58.3394 254.827L60.7364 256.802L61.9147 255.626L62.9303 256.314L62.0162 258.333L65.2461 257.068L66.404 258.045L68.4354 257.49L69.5323 258.022L69.9995 257.068L67.7853 254.627L69.0854 252.897L68.6994 250.256L69.5932 249.058L70.548 250.411L71.5434 247.127L74.2451 246.085L73.656 243.023L74.6514 240.804L77.3531 238.562L78.7954 238.962L77.861 243.156L78.6532 244.088L81.5377 243.622L83.5285 242.002L83.9144 243.821L84.4426 243.777L85.5192 241.181L86.3115 241.58L86.8396 242.934L85.9052 244.576L87.9569 246.484L88.871 249.968L89.9476 253.806L88.5053 255.116L89.6429 255.182L90.2523 256.114L89.0741 257.468L91.2883 257.357L90.1101 259.376L90.4555 259.931L91.9993 259.975L91.9587 262.15L90.6383 262.527L87.2662 265.389L81.9846 267.098L79.6689 271.402L78.7344 272.778L75.5249 272.911L72.2543 274.087L71.5434 273.621L71.1777 271.824L68.8213 272.379L65.7336 272.046L62.1787 274.354L62.3616 276.062L64.1085 278.481L63.6819 279.257L61.4474 279.923L60.6349 278.858L57.4659 279.39L53.7282 278.17L52.4688 276.728L52.1844 274.087L49.4217 272.423L47.7966 272.246L47.4919 271.203L46.6997 270.981L44.9527 271.935L42.0884 270.515L40.9509 272.556L41.865 274.509L41.2556 275.907L40.0367 276.129L39.1023 275.485L37.4975 276.262L34.7349 275.951L32.7238 277.26L31.9112 275.574L30.9565 276.595L31.2206 278.525L28.7626 276.084L29.4533 274.376L31.2612 272.579L27.747 269.028L28.4782 267.741L29.2705 269.339L30.3877 268.451L31.7081 269.428L32.0128 268.895L31.444 267.874L32.3988 267.253L34.3286 267.342L33.7395 265.833L31.444 265.988L30.6315 264.657L29.1892 265.411L29.5549 266.121L27.9501 266.92L26.5078 264.502L27.9704 265.123L31.0175 263.059L31.2612 261.684L33.252 261.306L32.6222 259.953L31.6472 259.576L32.1753 257.667L33.0894 258.244V256.624L34.3083 255.781L33.2317 255.005L33.0488 252.741L31.7691 253.074L31.4644 252.12L31.0175 252.697L29.4939 251.166L28.6814 249.48L29.4939 248.57L30.4283 248.725L30.3065 248.082Z" stroke="white" stroke-width="2" stroke-linejoin="round"/>
<path d="M88.4421 154.521L88.6703 156.078L90.4545 155.3L98.7945 155.878L103.151 156.412L109.085 158.568L106.45 161.793L105.641 168.174L104.52 170.531L103.608 170.976L101.243 169.264L97.8817 171.599L95.0602 171.021L94.2511 171.576L93.1515 174.089L93.4212 177.224L95.1017 180.226L93.6702 181.516L94.4793 182.894L93.9399 187.72L93.11 186.608L92.3217 188.075L91.1599 188.409L88.0479 187.319L86.6579 189.21L82.1974 190.232L81.0357 191.9L81.2846 196.992L79.127 196.859L77.737 198.571L77.1354 201.128L77.5295 202.373L79.4382 201.951L82.0522 203.796L82.1974 205.642L80.7245 207.688L84.1061 210.356L83.9402 211.935L84.8945 214.759L84.0231 216.738L84.3966 220.562L82.2804 223.608L82.3012 225.454L85.3094 228.523L88.5043 229.99L88.8985 231.68L86.8861 233.148L86.2845 235.66L84.3551 236.905L83.463 238.44L84.3136 241.997L82.2804 243.621L79.3345 244.088L78.5254 243.154L79.4797 238.951L78.0067 238.551L75.2474 240.797L74.2309 243.02L74.8325 246.089L72.0733 247.134L71.0567 250.425L70.0816 249.068L69.1688 250.269L69.5629 252.915L68.2352 254.65L70.4965 257.096L70.0194 258.052L68.8991 257.518L66.8244 258.074L65.6419 257.096L62.3432 258.363L63.2768 256.34L62.2395 255.65L61.0362 256.829L58.5882 254.85L56.7002 254.761L54.8538 252.915L55.1443 251.403L54.6878 250.87L52.9244 251.225L52.385 250.736L52.468 249.313L47.2607 248.135L47.3644 245.466L45.7047 246.022L44.045 245.111L42.9247 245.311L42.6757 246.333L40.4974 247.49L39.8542 249.958L38.4435 248.935L36.6386 250.38L35.5597 250.358L34.8129 248.779L34.232 248.757L32.1781 249.98L29.9582 248.09L29.8753 245.088L30.8088 244.266L29.8545 243.443L29.1076 244.132L28.506 243.598L26.4521 245.044L23.0912 244.177L23.4232 241.33L21.1618 242.754L20 241.308L20.2075 240.241L21.2655 239.796L22.1784 237.862L22.8215 234.148H23.5476L25.1451 232.058L24.3567 229.568L24.4397 226.455L27.033 222.652L29.4396 221.251L30.1449 217.938L31.8047 217.649L33.4021 216.026L33.5888 214.603L33.0494 213.891L33.7963 212.913L35.539 212.49L36.9083 210.823L37.012 209.644L34.1905 208.421L33.7548 205.264L32.3441 203.796L33.2154 201.995L36.7008 201.839L36.5971 196.325L35.7672 197.014L35.0411 196.369L35.8294 194.391L35.0411 193.279L35.9332 191.989L37.5929 191.277L38.7754 191.989L39.7712 191.478L39.8335 190.722L45.6632 189.965L48.215 184.762L47.1777 184.273L47.2814 183.695L45.4142 183.206L45.5595 180.493L46.2856 179.292L48.0698 178.403L47.6756 177.425L48.7129 176.624L49.6257 177.336L50.0407 176.068L50.7461 176.58L50.9743 175.913L48.6092 174.4L48.8374 173.355L54.0447 173.578L56.8247 171.443L58.6711 171.332L61.9698 165.817L64.1274 166.084L64.4386 164.016L65.4759 163.26L65.144 161.77L65.9323 160.903L65.3929 155.967L66.0776 154.922L71.0774 154.655L72.8616 156.434L74.6873 155.9L77.1354 159.258L78.1519 159.302L79.0025 158.502L79.5212 156.345L80.1643 156.434L80.6207 155.589L81.6996 155.9L88.4421 154.521Z" stroke="white" stroke-width="2" stroke-linejoin="round"/>
<path d="M179.443 260.562L180.158 261.519L182.934 261.453L185.833 263.166L187.18 261.964L188.139 263.411L187.935 264.078L185.506 264.879L185.281 265.97L186.833 266.949L186.588 268.796L189.384 267.416L191.181 269.708L191.63 269.508L193.079 271.31L195.161 276.139L197.835 279.187L201.264 284.973L203.652 287.176L205.285 286.975L207.959 288.311L209.654 291.47L212.981 290.691L213.675 291.315L214.695 296.855L216.369 299.659L216.43 301.306L217.574 302.151L220.064 301.306L220.431 304.02L221.003 304.51L220.268 305.356L219.064 305.022L218.553 306.312L219.207 307.091L220.309 306.78L221.84 308.182L222.881 312.899L226.984 314.234L230.29 309.339L230.923 306.513L234.332 309.072L235.373 308.226L235.822 308.716L234.985 310.473L236.169 312.187L236.475 314.835L235.904 316.637L233.495 319.218L234.924 320.843L236.026 318.84L236.659 318.818L239.374 321.822L240.986 325.582L239.639 327.785L242.211 332.303L241.64 334.706L242.966 334.95L243.762 333.793L243.028 331.168L243.824 330.634L245.824 332.013L248.131 335.284L250.621 333.526L250.825 331.323L253.213 332.058L254.948 328.052L255.847 327.83L256.479 328.631L257.806 328.408L260.97 329.388L262.419 331.435L263.256 331.59L265.542 330.166L267.563 329.899L268.747 328.52L270.38 322L269.094 320.509L269.645 317.149L270.564 316.437L271.768 316.837L272.666 315.458L271.584 312.61L271.809 311.853L273.911 311.809L275.095 314.323L277.953 316.17L277.443 313.745L277.912 312.343L280.77 311.03L281.423 310.918L281.893 311.964L283.689 311.341L285.424 312.276L285.955 311.786L287.914 313.255L291.017 312.877L291.772 316.815L289.69 318.796L288.118 322.601L290.057 324.069L289.302 324.247L289.118 325.204L289.833 327.029L291.037 327.474L290.996 326.495L294.262 328.809L295.957 329.187L294.079 331.768L295.303 333.126L297.12 333.905L301.815 334.016L301.958 335.729L303.019 337.732L305.632 337.955L308.122 339.401L310.061 338.689L311.082 340.914L312.878 342.85L311.572 343.317L309.245 354.755L300.468 358.092L295.324 357.87L292.976 357.291L291.201 354.866L291.017 353.486L289.363 352.952L288.404 353.887L285.893 360.028L281.484 361.764L281.627 359.517L280.709 358.137L277.81 358.426L276.912 357.714L272.38 357.158L270.605 355.333L270.482 353.731L267.849 353.931L267.359 351.061L267.931 349.303L267.359 348.012L264.522 347.567L263.358 345.498L262.215 346.21L261.725 347.834L260.623 347.545L260.378 346.366L259.092 347.456L258.01 346.566L257.214 346.967L256.418 346.032L255.479 346.277L255.153 351.306L254.418 351.817L253.907 350.95L252.744 351.194L251.907 352.641L249.56 351.35L247.13 347.144L244.783 348.257L243.824 347.656L243.028 348.213L241.987 347.478L240.476 347.567L240.517 350.282L239.129 349.815L237.088 347.323L236.598 347.923L236.741 350.171L235.577 350.327L234.944 351.862L232.577 351.261L231.76 355.6L225.922 359.405L225.31 360.429L222.268 357.848L220.37 358.137L216.594 354.51L216.063 353.776L216.675 351.929L215.92 351.283L213.389 353.642L212.593 352.507L210.878 352.24L210.123 354.332L211.164 358.916L209.429 361.141H207.959L206.714 358.805L208.041 353.397L204.877 352.463L203.183 349.659L203.326 348.546L202.897 347.879L202.611 348.213L202.571 346.766L201.019 345.431L195.814 343.807L194.794 341.782L195.181 339.69L191.446 336.486L190.017 337.176L189.772 336.642L187.037 336.82L185.69 337.621L184.894 336.886L184.057 337.487L184.404 336.775L182.73 336.619L181.301 337.376L181.403 337.888L179.321 337.754L176.055 330.033L175.075 331.279L173.789 331.234L172.83 332.837L169.176 332.147L167.686 334.528L168.258 336.263L166.42 337.51L165.808 337.598L166.073 336.486L164.91 335.284L164.216 336.575L162.889 337.287L161.215 337.109L160.154 335.418L161.889 335.039L161.869 332.926L160.521 331.991L157.521 332.547L155.01 332.236L154.234 330.522L154.622 329.276L159.297 325.493L162.542 321.911L163.216 320.62L162.277 315.814L164.971 312.432V311.43L163.665 309.917L164.583 307.002L165.624 305.845L166.645 306.268L167.706 303.242L167.462 301.439L170.523 298.279L172.769 296.9L173.483 294.23L172.524 292.85L173.789 289.534L173.565 288.355L175.688 287.376L173.646 286.642L172.707 284.216L174.361 281.546L174.932 277.719L176.912 274.359L177.79 270.754L177.851 269.307L176.137 267.349L175.994 266.103L176.708 265.814L177.137 262.031L179.443 260.562Z" stroke="white" stroke-width="2" stroke-linejoin="round"/>
<path d="M250.839 205.241L248.005 208.426L247.738 209.62L244.062 211.721H242.768L237.326 204.047L235.95 204.135L233.896 206.015L231.534 206.767L230.651 206.192L227.94 200.729L226.934 200.508L223.71 201.592L221.882 203.472L220.526 203.936L218 202.277L214.694 203.45L213.236 201.946L211.716 201.525L210.997 199.513L209.662 199.048L206.458 204.378L205.616 200.751L204.302 200.309L201.899 197.058L202.269 195.399L201.427 194.935L199.948 195.797L199.702 197.456L198.798 196.24L198.942 194.116L198.285 193.077L198.531 191.396L201.489 190.998L203.522 186.309L206.931 183.81L206.664 183.102L205.411 182.948L205.041 181.775L205.596 180.625L205 176.777L203.44 176.888L203.029 176.158L203.44 174.167L204.651 172.884L204.282 171.535L201.447 168.771L202.413 166.979L202.372 164.524L203.357 161.893L202.269 157.138L199.743 153.577L197.833 149.33L198.88 146.721L197.217 142.076L196.642 137.786L197.094 136.812L196.457 135.64L196.868 134.269L198.983 133.008L197.402 130.775L196.744 126.285L197.956 123.498L197.073 122.68L195.615 123.078L193.294 121.64L191.508 121.618L188.879 115.315L191.631 109.211L192.144 104.765L193.993 104.478L195.368 98.1084L195.41 93.1764L192.35 88.0011L191.22 88.5319L190.891 90.7657L177.891 88.4656L175.283 86.8731L176.557 84.5288L175.838 82.7816L176.125 80.8353L173.045 79.6852L173.312 78.0708L167.664 75.7707L169.718 66.4374L176.187 67.7644L178.035 63.7834L182.553 64.1595L183.888 60.2005L192.206 61.4169L190.85 66.4374L197.997 67.7424L198.778 63.6066L215.105 66.3269L216.973 61.616L218.596 61.9257L219.931 57.9889L226.626 58.4977L228.597 53.4771L234.327 55.0032L236.689 48.0586L238.578 48.3682L239.482 45.869L240.262 45.9796L240.92 44.7189L246.321 46.6431L248.087 45.5594L254.043 46.3555L271.951 46.0902L272.834 45.1392L275.237 44.8516L276.387 42.4189L279.981 40.1187L281.48 44.1439L278.687 51.8184L278.708 54.3839L279.693 61.7266L281.562 65.6634L281.542 70.7945L280.125 77.0534L277.332 84.175L277.496 87.2712L275.175 95.8083L270.863 99.9662L268.706 103.638L266.632 111.29L268.275 112.816L270.329 116.532L271.889 117.549L273.984 117.792L276.469 121.264L276.141 124.095L277.332 126.329L275.771 128.828L275.75 131.526L276.736 131.88L277.25 133.65L278.276 134.49L280.515 134.07L280.864 134.623L280.248 136.392L281.172 140.373L280.474 141.811L277.66 143.868L276.962 146.234L276.12 146.853L274.128 146.455L271.376 148.91L270.554 151.1L268.234 154.019L268.419 156.916L269.548 158.686L271.91 159.283L272.464 160.322L272.321 163.153L269.487 165.387L267.371 168.129L266.385 164.723L263.818 164.945L261.744 164.038L260.43 165.564L260.409 167.024L259.013 168.992L259.423 170.894L257.924 174.521L258.089 175.693L260.081 177.418L259.403 180.249L260.758 182.306L260.224 182.97L260.799 184.208L260.224 184.628L259.506 183.523L258.746 183.456L254.885 188.211L253.447 188.941L250.038 187.459L248.908 188.477L248.518 190.954L251.209 195.642L250.326 198.097L250.839 205.241Z" stroke="white" stroke-width="2" stroke-linejoin="round"/>
<path d="M28.0141 275.905L30.5082 278.387L30.2403 276.424L31.2091 275.387L32.0336 277.101L34.0742 275.77L36.8775 276.086L38.506 275.296L39.4541 275.951L40.6909 275.725L41.3093 274.304L40.3817 272.319L41.536 270.243L44.4424 271.687L46.2151 270.717L47.019 270.942L47.3282 272.003L48.9772 272.183L51.7805 273.875L52.0691 276.56L53.3471 278.026L57.1398 279.267L60.3553 278.725L61.1799 279.808L63.4472 279.131L63.8801 278.342L62.1074 275.883L61.9219 274.146L65.5291 271.8L68.6623 272.138L71.0533 271.574L71.4244 273.401L72.1458 273.875L75.4644 272.68L78.7212 272.544L79.6694 271.146L80.329 271.484L82.5758 270.672L84.266 271.913L85.2554 273.244L85.6677 275.928L89.2749 280.801L89.1718 284.275L89.9345 284.974L92.5935 284.546L92.7791 285.606L95.4999 287.749L96.0152 289.283L95.3144 291.426L96.1801 293.366L95.4175 299.705L96.4687 302.66L96.2008 303.879L94.1395 305.728L93.7685 307.217L92.0988 306.608L91.4804 304.826L89.3573 306.067L87.7496 305.819L86.451 307.939L84.7607 307.871L83.7301 309.451L81.9368 310.353L82.6995 312.654L82.2048 313.489L77.1753 310.488L74.9903 313.263L70.2288 313.015L69.26 313.466L68.25 315.316L65.5085 311.932L63.1175 311.819L61.6539 310.714L61.0356 310.736L60.376 313.466L56.8924 316.444L54.8724 314.775L51.8423 314.301L49.6162 312.451L45.8441 313.601L44.4836 314.82L41.7628 312.248L40.7733 312.316L39.2686 313.714L39.3304 311.052L41.7421 308.029L41.6597 306.337L37.2898 300.269L31.5183 294.652L31.6419 292.78L29.3127 289.26L27.6431 289.17L27.0247 288.516L27.3545 285.922L24.5924 284.004L25.0047 277.056L24.4688 276.537L28.0141 275.905Z" stroke="white" stroke-width="2" stroke-linejoin="round"/>
<path d="M142.222 255.842L144.418 256.685L145.682 258.658L146.862 257.416L147.567 257.815L148.644 259.7L148.313 260.942L149.079 261.274L152.353 258.081L155.232 260.875L156.123 258.347L155.978 255.753L158.443 253.336L158.381 252.206L160.308 253.07L161.717 251.762L161.468 254.223L162.11 254.556L163.788 252.361L164.762 254.068L168.408 256.352L170.149 256.729L170.066 258.458L171.599 259.656L171.868 261.075L175.39 258.059L176.695 258.813L177.773 257.86L178.394 258.059L179.057 259.855L176.716 261.318L176.281 265.088L175.556 265.376L175.701 266.618L177.441 268.569L177.379 270.01L176.488 273.602L174.479 276.95L173.899 280.764L172.22 283.424L173.173 285.841L175.245 286.573L173.091 287.548L173.318 288.724L172.034 292.027L173.008 293.402L172.283 296.063L170.004 297.437L166.896 300.586L167.145 302.382L166.067 305.397L165.032 304.976L163.975 306.129L163.043 309.033L164.369 310.541V311.539L161.634 314.909L162.587 319.698L161.903 320.984L158.609 324.554L153.865 328.323L150.778 323.445L146.614 321.938L145.557 322.337L143.9 320.386L144.293 319.72L142.284 319.277L141.289 318.235L139.011 318.168L136.359 316.173L136.152 313.556L135.261 312.514L134.515 312.603L134.225 313.934L133.168 313.69L131.863 312.293L132.153 311.095L130.62 310.164L125.627 310.63L122.768 308.191L121.587 306.262L120.572 306.373L119.723 305.264L118.314 304.887L116.201 306.639L115.786 305.486L117.278 302.914L117.05 302.093L118.19 301.584L119.578 298.568L118.314 296.994L116.242 296.728L116.511 295.774L115.766 295.353L114.357 296.129L113.984 295.442L114.543 293.158L113.632 291.983L113.86 289.876L112.72 289.3L111.125 286.684L112.099 285.531L112.119 284.444L114.191 283.402L116.967 284.422L117.506 282.781L117.174 281.008L116.18 280.143L116.325 279.323L117.237 278.657L120.033 279.433L120.614 278.968L120.386 278.258L118.169 277.172L118.956 276.241L123.866 278.192L126.601 274.179L129.501 274.555L128.755 273.336L130.102 273.846L132.692 273.269L134.888 274.932L138.058 273.026L140.564 274.112L141.248 273.314L139.984 271.651L143.631 268.369L143.838 265.398L144.977 263.514L144.169 261.651L144.335 259.5L142.222 255.842Z" stroke="white" stroke-width="2" stroke-linejoin="round"/>
<path d="M279.998 30.9128L280.843 30L287.171 33.0058L287.748 33.9186L287.707 37.3252L288.923 38.817L294.179 37.6147L305.309 39.7743L328.085 55.8499L330.703 60.1248L330.992 62.0173L329.796 66.2701L331.363 72.1481L336.536 82.1675L337.072 84.6835L336.083 87.1993L342.658 90.1384L343.668 92.1869L344.843 99.5567L344.822 108.285L345.914 110.756L347.605 112.715L349.398 113.539L354.015 113.673L359.889 115.788L363.331 115.632L363.97 118.46L365.475 118.326L365.928 118.972L369.783 132.242L372.586 135.649L375.678 136.851L376.234 139.634L377.141 148.629L379.594 154.908L374.894 157.78L374.111 159.228L372.545 159.784L371.597 161.588L369.783 163.035L367.886 161.565L360.198 166.197L361.971 168.468L359.972 172.141L363.166 187.326L363.599 188.15L365.578 187.816L365.908 188.462L364.877 191.735L361.332 192.403L359.539 190.466L355.664 190.399L353.603 192.714L352.593 192.492L351.995 193.093L352.119 195.676L349.934 197.746L350.284 200.307L348.697 200.908L343.874 200.285L339.566 196.678L337.958 197.457L337.196 198.771L336.68 198.014L334.063 198.214L331.445 196.744L328.498 198.615L327.055 200.507L325.715 198.103L325.014 198.058L323.365 199.372L319.841 205.45L318.089 206.719L317.924 210.237L315.76 209.235L314.956 207.209L313.348 206.586L313.162 205.473L310.607 205.606L309.164 203.892L307.474 204.515L305.701 203.647L303.722 205.339L304.753 208.078L299.394 208.679L298.157 207.944L296.426 208.501L293.973 206.897L289.768 208.122L287.377 207.209L283.791 208.144L282.389 205.695L278.782 205.294L277.113 204.27L275.464 205.205L275.794 207.966L274.722 208.857L273.877 208.612L273.567 210.927L272.001 213.043L270.414 212.731L266.642 210.059L263.014 212.241L262.396 211.462L260.314 211.15L258.542 212.375L257.614 212.197L255.429 210.482L254.069 210.393L251.843 211.462L250.915 210.415L251.492 208.968L250.029 207.076L249.72 205.562L249.204 198.37L250.091 195.898L247.391 191.178L247.782 188.684L248.916 187.66L252.337 189.152L253.78 188.417L257.655 183.63L258.418 183.697L259.139 184.81L259.716 184.387L259.139 183.14L259.675 182.473L258.315 180.402L258.995 177.552L256.996 175.815L256.831 174.635L258.335 170.984L257.923 169.069L259.325 167.087L259.345 165.618L260.665 164.081L262.746 164.994L265.323 164.772L266.312 168.2L268.435 165.44L271.28 163.191L271.424 160.341L270.867 159.294L268.497 158.693L267.363 156.912L267.178 153.995L269.507 151.056L270.331 148.852L273.093 146.38L275.093 146.781L275.938 146.158L276.639 143.775L279.462 141.705L280.163 140.258L279.236 136.25L279.854 134.469L279.504 133.912L277.257 134.335L276.226 133.489L275.711 131.708L274.722 131.351L274.742 128.635L276.309 126.119L275.113 123.87L275.443 121.02L272.949 117.525L270.847 117.28L269.28 116.256L267.219 112.515L265.57 110.979L267.652 103.275L269.816 99.579L274.145 95.3931L276.474 86.7986L276.309 83.6815L279.112 76.512L280.534 70.2111L280.555 65.0455L278.679 61.0822L277.69 53.6901L277.669 51.1074L280.472 43.3813L278.968 39.329L278.576 34.0077L279.998 30.9128Z" stroke="white" stroke-width="2" stroke-linejoin="round"/>
<path d="M142.324 196.492L143.646 197.073L144.514 196.156L145.65 196.827L146.868 195.44L149.822 200.138L149.574 201.413L150.958 204.366L153.395 205.149L152.982 203.247L154.056 202.621L154.985 203.717L155.502 205.551L154.944 208.168L156.534 210.741L158.084 211.926L159.178 211.546L160.851 212.978L161.884 212.933L162.38 211.613L165.54 210.629L166.283 211.076L164.011 213.022L162.545 215.483L162.421 216.288L163.784 217.384L165.994 216.311L168.803 217.183L170.497 216.601L171.509 216.78L173.203 218.793L173.967 218.637L174.752 217.384L174.339 213.649L176.28 212.575L178.036 214.856L180.081 213.425L181.217 215.259L182.291 214.32L181.299 211.568L181.754 211.032L183.468 211.926L183.84 210.785L182.662 209.264L179.358 207.922L179.316 207.385L181.816 204.903L183.922 204.366L184.996 202.308L184.48 201.144L186.649 199.355L187.31 200.406L185.678 203.672L186.112 208.884L189.107 211.546L190.47 211.859L191.255 210.763L190.222 207.877L190.718 207.05L194.105 208.437L194.002 211.613L191.998 213.089L191.957 215.013L189.809 216.601L189.52 217.541L191.379 219.375L197.492 216.378L199.682 217.496L200.756 220.113L201.85 220.851L201.52 221.366L203.379 222.417L203.462 224.699L200.632 227.495L200.776 229.329L199.847 230.38L199.062 233.087L195.778 235.033L193.589 238.098L191.978 238.053L188.425 239.596L187.826 241.05L189.602 241.654L191.833 243.667L193.279 246.083L195.179 245.994L195.799 247L194.539 249.483L195.034 252.257L192.597 256.664L191.998 259.214L191.193 264.291L191.998 268.206L191.482 270.04L191.028 270.242L189.21 267.938L186.38 269.324L186.628 267.468L185.058 266.484L185.286 265.388L187.743 264.582L187.95 263.911L186.979 262.457L185.616 263.665L182.683 261.943L179.874 262.01L179.151 261.048L178.49 259.236L177.871 259.035L176.797 259.997L175.495 259.236L171.984 262.278L171.716 260.847L170.187 259.639L170.27 257.894L168.535 257.514L164.9 255.21L163.929 253.487L162.256 255.702L161.615 255.366L161.863 252.883L160.459 254.203L158.538 253.331L158.6 254.472L156.142 256.91L156.287 259.527L155.398 262.077L152.527 259.259L149.264 262.48L148.5 262.144L148.83 260.891L147.756 258.99L147.054 258.587L145.877 259.84L144.617 257.849L142.427 256.999L139.412 257.089L137.842 255.232L135.033 255.277L135.343 254.158L132.844 248.969L130.468 246.777L129.642 247.739L129.332 247.068L128.775 247.47L128.155 248.656L126.544 248.857L128.382 249.819L126.42 249.953L124.045 253.756L122.227 254.449L119.191 254.472L117.849 252.928L115.804 252.369L115.783 250.714L114.461 251.094L113.284 250.199L112.313 251.899L110.805 251.631L110.31 254.405L109.38 253.801L109.215 251.452L108.306 250.714L107.253 251.116L107.439 252.324L105.415 254.852L105.745 256.485L105.146 256.82L103.37 255.858L102.771 257.201L102.13 254.628L102.667 253.935L100.953 251.765L103.535 250.602L102.44 248.79L103.432 247.873L103.246 246.933L105.291 248.633L107.666 248.969L107.418 247.403L109.483 247.515L108.74 244.629L113.387 243.757L113.408 242.907L111.466 243.779L110.599 242.527L110.888 240.961L112.85 239.775L111.239 235.324L110.103 234.921L110.227 236.532L109.339 236.42L108.265 237.852L107.335 237.494L107.563 235.19L107.852 234.34L109.463 233.825L111.921 229.888L114.151 227.942L112.52 227.025L112.437 225.526L114.916 224.52L116.01 222.596L118.117 222.126L118.055 220.493L117.807 218.659L120.947 216.042L121.835 212.978L123.673 213.582L124.85 211.076L126.338 211.121L127.515 209.309L127.68 208.414L125.387 208.37L125.016 207.162L126.11 205.059L128.217 203.65L131.997 204.612L132.988 202.419L134.682 202.666L135.529 200.63L137.698 199.758L138.895 200.518L138.193 201.681L138.813 202.71L140.651 201.346L141.56 202.375L142.613 200.362L144.307 199.646L144.41 198.975L143.853 197.968L142.593 197.789L142.324 196.492Z" stroke="white" stroke-width="2" stroke-linejoin="round"/>
<path d="M162.141 211.101L163.216 209.49L161.728 208.298L163.175 206.488L160.716 204.678L160.344 203.066L158.091 200.726L158.629 199.402L158.174 197.481L158.691 195.958L161.212 196.068L161.914 193.397L163.485 191.962L163.691 190.55L161.852 188.496L157.492 178.033L159.021 174.081L160.22 173.154L162.451 172.867L163.567 173.441L164.89 172.933L164.828 171.719L166.832 170.439L167.059 169.092L168.692 167.326L169.518 164.744L168.96 159.269L169.89 157.26L168.217 156.355L168.113 154.434L165.737 152.006L167.617 146.819L169.622 144.28L172.122 143.022L173.444 142.977L177.06 144.633L183.115 145.141L183.838 144.346L184.169 142.05L187.144 140.88L188.88 144.479L191.153 144.655L191.318 143.507L191.938 143.264L192.455 143.949L193.633 143.22L194.624 143.64L195.368 142.713L196.939 142.492L198.612 147.128L197.559 149.732L199.48 153.971L202.022 157.525L203.117 162.271L202.125 164.898L202.167 167.348L201.195 169.137L204.047 171.896L204.419 173.243L203.2 174.523L202.786 176.51L203.2 177.238L204.77 177.128L205.369 180.969L204.811 182.117L205.183 183.287L206.444 183.441L206.712 184.148L203.282 186.642L201.237 191.322L198.261 191.719L198.013 193.397L198.674 194.435L198.53 196.554L199.439 197.768L199.687 196.112L201.175 195.251L202.022 195.715L201.65 197.371L204.068 200.616L205.39 201.057L206.237 204.678L206.01 206.554L203.241 208.121L201.774 211.455L198.055 214.214L197.269 215.804L191.153 218.762L189.293 216.951L189.583 216.024L191.731 214.457L191.773 212.558L193.777 211.101L193.881 207.967L190.492 206.598L189.996 207.415L191.029 210.263L190.244 211.344L188.88 211.035L185.884 208.408L185.45 203.265L187.082 200.042L186.421 199.004L184.251 200.77L184.768 201.918L183.693 203.949L181.586 204.479L179.085 206.929L179.127 207.459L182.433 208.783L183.611 210.285L183.239 211.41L181.524 210.528L181.069 211.057L182.061 213.773L180.987 214.7L179.85 212.89L177.804 214.302L176.048 212.051L174.106 213.11L174.519 216.797L173.734 218.033L172.969 218.188L171.275 216.201L170.262 216.024L168.568 216.598L165.758 215.737L163.547 216.797L162.183 215.715L162.307 214.92L163.774 212.492L166.047 210.572L165.303 210.13L162.141 211.101Z" stroke="white" stroke-width="2" stroke-linejoin="round"/>
<path d="M100.882 251.029L102.588 253.197L102.054 253.89L102.691 256.462L103.287 255.12L105.054 256.081L105.65 255.746L105.321 254.114L107.335 251.588L107.15 250.38L108.198 249.978L109.102 250.716L109.267 253.063L110.192 253.667L110.685 250.894L112.185 251.163L113.151 249.464L114.322 250.358L115.638 249.978L115.658 251.632L117.693 252.191L119.029 253.734L122.05 253.712L123.858 253.018L126.221 249.218L128.174 249.084L126.345 248.122L127.948 247.921L128.564 246.736L129.119 246.334L129.427 247.004L130.249 246.043L132.613 248.234L135.099 253.421L134.791 254.539L137.586 254.494L139.148 256.35L142.148 256.26L144.245 259.949L144.08 262.118L144.882 263.996L143.751 265.896L143.546 268.892L139.929 272.201L141.182 273.878L140.504 274.683L138.018 273.587L134.873 275.51L132.695 273.833L130.126 274.415L128.79 273.9L129.53 275.13L126.653 274.75L123.94 278.797L119.07 276.829L118.289 277.768L120.488 278.864L120.714 279.579L120.138 280.049L117.364 279.266L116.46 279.937L116.316 280.764L117.302 281.636L117.631 283.425L117.097 285.079L114.343 284.051L112.288 285.101L112.267 286.197L111.301 287.359L112.884 289.998L114.014 290.579L113.788 292.703L114.692 293.888L114.137 296.191L114.507 296.884L115.905 296.101L116.645 296.526L116.377 297.487L118.433 297.756L119.686 299.343L118.309 302.384L117.179 302.898L115.823 302.182L114.117 303.434L112.761 303.121L111.856 305.134L110.664 305.469L109.267 304.284L108.178 306.095L108.959 308.219L108.198 308.867L105.568 307.548L103.06 309.404L100.348 308.979L99.6079 308.152L97.9433 308.89L97.0802 307.123L94.7785 307.995L93.8537 307.235L94.2236 305.76L96.2787 303.926L96.5458 302.719L95.4978 299.79L96.2581 293.508L95.395 291.585L96.0937 289.461L95.58 287.941L92.8672 285.817L92.6823 284.766L90.0312 285.191L89.2708 284.498L89.3736 281.055L85.7772 276.225L85.3662 273.565L84.3797 272.246L82.6946 271.016L80.4545 271.821L79.7969 271.486L82.1397 267.148L87.4829 265.427L90.8943 262.543L92.2302 262.163L92.2713 259.972L90.7094 259.927L90.36 259.368L91.552 257.333L89.3119 257.445L90.5039 256.081L89.8874 255.142L88.7365 255.075L90.1956 253.756L89.1064 249.889L92.2096 252.258L93.8126 252.169L94.8812 253.51L96.6486 251.565L98.005 251.409L99.238 252.549L100.882 251.029Z" stroke="white" stroke-width="2" stroke-linejoin="round"/>
</g>
<defs>
<clipPath id="clip0_3157_14714">
<rect width="425" height="392" fill="white"/>
</clipPath>
</defs>
</svg>
