<svg width="25" height="24" viewBox="0 0 25 24" fill="none" xmlns="http://www.w3.org/2000/svg">
<path fill-rule="evenodd" clip-rule="evenodd" d="M13.5566 3C12.1147 3 10.9881 4.15519 10.9153 5.53329C10.8838 6.13097 10.8321 6.76912 10.7507 7.26802C10.7209 7.45094 10.6222 7.72386 10.4427 8.07026C10.2695 8.40458 10.0494 8.75378 9.82551 9.07804C9.60304 9.40028 9.38561 9.68529 9.22344 9.89001C9.19691 9.92351 9.17194 9.95475 9.14876 9.98355L7.71669 10.3999C7.38134 10.1488 6.96448 10 6.51274 10H4.50637C3.39828 10 2.5 10.8954 2.5 12V19C2.5 20.1046 3.39828 21 4.50637 21H6.51274C7.1252 21 7.67357 20.7264 8.04159 20.2952L8.04204 20.2954C8.99874 20.7591 10.0486 21 11.1124 21H18.7346C20.2283 21 21.496 19.9079 21.7124 18.4346L22.4677 13.2917C22.7336 11.4812 21.3255 9.85714 19.4899 9.85714H17.2198V6.65155C17.2198 4.63485 15.5798 3 13.5566 3ZM8.51912 18.3028L8.91928 18.4967C9.60265 18.8279 10.3526 19 11.1124 19H18.7346C19.2325 19 19.655 18.636 19.7272 18.1449L20.4825 13.002C20.5711 12.3985 20.1017 11.8571 19.4899 11.8571H16.2166C15.6626 11.8571 15.2135 11.4094 15.2135 10.8571V6.65155C15.2135 5.73942 14.4717 5 13.5566 5C13.2389 5 12.9387 5.26479 12.9189 5.63842C12.8862 6.25857 12.8301 6.98223 12.7311 7.58912C12.6517 8.07567 12.444 8.56606 12.2253 8.98805C12.0004 9.42211 11.7307 9.84636 11.4783 10.2119C11.2246 10.5794 10.9794 10.9005 10.7981 11.1294C10.7071 11.2443 10.6314 11.3369 10.5778 11.4017C10.5509 11.4341 10.5295 11.4596 10.5144 11.4775L10.4965 11.4985L10.4913 11.5046L10.4897 11.5065L10.4891 11.5072L10.4889 11.5075C10.4888 11.5076 10.4887 11.5077 9.7268 10.8571L10.4887 11.5077C10.3619 11.6552 10.1948 11.7627 10.0077 11.8171L8.51912 12.25V18.3028ZM6.51274 12H4.50637V14V17V19H6.51274V18.9286V17V14V12Z" fill="#424242"/>
</svg>
