<svg width="41" height="41" viewBox="0 0 41 41" fill="none" xmlns="http://www.w3.org/2000/svg">
<path fill-rule="evenodd" clip-rule="evenodd" d="M34.168 20.5003C34.168 28.0482 28.0492 34.167 20.5013 34.167C12.9534 34.167 6.83463 28.0482 6.83463 20.5003C6.83463 12.9524 12.9534 6.83366 20.5013 6.83366C28.0492 6.83366 34.168 12.9524 34.168 20.5003ZM37.5846 20.5003C37.5846 29.9352 29.9362 37.5837 20.5013 37.5837C11.0664 37.5837 3.41797 29.9352 3.41797 20.5003C3.41797 11.0655 11.0664 3.41699 20.5013 3.41699C29.9362 3.41699 37.5846 11.0655 37.5846 20.5003ZM22.2096 11.9587C22.2096 11.0152 21.4448 10.2503 20.5013 10.2503C19.5578 10.2503 18.793 11.0152 18.793 11.9587V20.5003C18.793 21.038 19.0461 21.5444 19.4763 21.867L26.3096 26.992C27.0644 27.5581 28.1352 27.4051 28.7013 26.6503C29.2674 25.8955 29.1144 24.8247 28.3596 24.2587L22.2096 19.6462V11.9587Z" fill="#424242"/>
</svg>
